<svg id="my-svg" width="100%" xmlns="http://www.w3.org/2000/svg" xmlns:xlink="http://www.w3.org/1999/xlink" class="flowchart" style="max-width: 1558.18px; background-color: white;" viewBox="0 0 1558.1796875 2063.28173828125" role="graphics-document document" aria-roledescription="flowchart-v2"><style>#my-svg{font-family:"trebuchet ms",verdana,arial,sans-serif;font-size:16px;fill:#333;}@keyframes edge-animation-frame{from{stroke-dashoffset:0;}}@keyframes dash{to{stroke-dashoffset:0;}}#my-svg .edge-animation-slow{stroke-dasharray:9,5!important;stroke-dashoffset:900;animation:dash 50s linear infinite;stroke-linecap:round;}#my-svg .edge-animation-fast{stroke-dasharray:9,5!important;stroke-dashoffset:900;animation:dash 20s linear infinite;stroke-linecap:round;}#my-svg .error-icon{fill:#552222;}#my-svg .error-text{fill:#552222;stroke:#552222;}#my-svg .edge-thickness-normal{stroke-width:1px;}#my-svg .edge-thickness-thick{stroke-width:3.5px;}#my-svg .edge-pattern-solid{stroke-dasharray:0;}#my-svg .edge-thickness-invisible{stroke-width:0;fill:none;}#my-svg .edge-pattern-dashed{stroke-dasharray:3;}#my-svg .edge-pattern-dotted{stroke-dasharray:2;}#my-svg .marker{fill:#333333;stroke:#333333;}#my-svg .marker.cross{stroke:#333333;}#my-svg svg{font-family:"trebuchet ms",verdana,arial,sans-serif;font-size:16px;}#my-svg p{margin:0;}#my-svg .label{font-family:"trebuchet ms",verdana,arial,sans-serif;color:#333;}#my-svg .cluster-label text{fill:#333;}#my-svg .cluster-label span{color:#333;}#my-svg .cluster-label span p{background-color:transparent;}#my-svg .label text,#my-svg span{fill:#333;color:#333;}#my-svg .node rect,#my-svg .node circle,#my-svg .node ellipse,#my-svg .node polygon,#my-svg .node path{fill:#ECECFF;stroke:#9370DB;stroke-width:1px;}#my-svg .rough-node .label text,#my-svg .node .label text,#my-svg .image-shape .label,#my-svg .icon-shape .label{text-anchor:middle;}#my-svg .node .katex path{fill:#000;stroke:#000;stroke-width:1px;}#my-svg .rough-node .label,#my-svg .node .label,#my-svg .image-shape .label,#my-svg .icon-shape .label{text-align:center;}#my-svg .node.clickable{cursor:pointer;}#my-svg .root .anchor path{fill:#333333!important;stroke-width:0;stroke:#333333;}#my-svg .arrowheadPath{fill:#333333;}#my-svg .edgePath .path{stroke:#333333;stroke-width:1px;}#my-svg .flowchart-link{stroke:#333333;fill:none;}#my-svg .edgeLabel{background-color:rgba(232,232,232, 0.8);text-align:center;}#my-svg .edgeLabel p{background-color:rgba(232,232,232, 0.8);}#my-svg .edgeLabel rect{opacity:0.5;background-color:rgba(232,232,232, 0.8);fill:rgba(232,232,232, 0.8);}#my-svg .labelBkg{background-color:rgba(232, 232, 232, 0.5);}#my-svg .cluster rect{fill:#ffffde;stroke:#aaaa33;stroke-width:1px;}#my-svg .cluster text{fill:#333;}#my-svg .cluster span{color:#333;}#my-svg div.mermaidTooltip{position:absolute;text-align:center;max-width:200px;padding:2px;font-family:"trebuchet ms",verdana,arial,sans-serif;font-size:12px;background:hsl(80, 100%, 96.2745098039%);border:1px solid #aaaa33;border-radius:2px;pointer-events:none;z-index:100;}#my-svg .flowchartTitleText{text-anchor:middle;font-size:18px;fill:#333;}#my-svg rect.text{fill:none;stroke-width:0;}#my-svg .icon-shape,#my-svg .image-shape{background-color:rgba(232,232,232, 0.8);text-align:center;}#my-svg .icon-shape p,#my-svg .image-shape p{background-color:rgba(232,232,232, 0.8);padding:2px;}#my-svg .icon-shape .label rect,#my-svg .image-shape .label rect{opacity:0.5;background-color:rgba(232,232,232, 0.8);fill:rgba(232,232,232, 0.8);}#my-svg .label-icon{display:inline-block;height:1em;overflow:visible;vertical-align:-0.125em;}#my-svg .node .label-icon path{fill:currentColor;stroke:revert;stroke-width:revert;}#my-svg .node .neo-node{stroke:#9370DB;}#my-svg [data-look="neo"].node rect,#my-svg [data-look="neo"].cluster rect,#my-svg [data-look="neo"].node polygon{stroke:#9370DB;filter:drop-shadow(1px 2px 2px rgba(185, 185, 185, 1));}#my-svg [data-look="neo"].node path{stroke:#9370DB;stroke-width:1px;}#my-svg [data-look="neo"].node .outer-path{filter:drop-shadow(1px 2px 2px rgba(185, 185, 185, 1));}#my-svg [data-look="neo"].node .neo-line path{stroke:#9370DB;filter:none;}#my-svg [data-look="neo"].node circle{stroke:#9370DB;filter:drop-shadow(1px 2px 2px rgba(185, 185, 185, 1));}#my-svg [data-look="neo"].node circle .state-start{fill:#000000;}#my-svg [data-look="neo"].icon-shape .icon{fill:#9370DB;filter:drop-shadow(1px 2px 2px rgba(185, 185, 185, 1));}#my-svg [data-look="neo"].icon-shape .icon-neo path{stroke:#9370DB;filter:drop-shadow(1px 2px 2px rgba(185, 185, 185, 1));}#my-svg :root{--mermaid-font-family:"trebuchet ms",verdana,arial,sans-serif;}</style><g><marker id="my-svg_flowchart-v2-pointEnd" class="marker flowchart-v2" viewBox="0 0 10 10" refX="5" refY="5" markerUnits="userSpaceOnUse" markerWidth="8" markerHeight="8" orient="auto"><path d="M 0 0 L 10 5 L 0 10 z" class="arrowMarkerPath" style="stroke-width: 1; stroke-dasharray: 1, 0;"/></marker><marker id="my-svg_flowchart-v2-pointStart" class="marker flowchart-v2" viewBox="0 0 10 10" refX="4.5" refY="5" markerUnits="userSpaceOnUse" markerWidth="8" markerHeight="8" orient="auto"><path d="M 0 5 L 10 10 L 10 0 z" class="arrowMarkerPath" style="stroke-width: 1; stroke-dasharray: 1, 0;"/></marker><marker id="my-svg_flowchart-v2-pointEnd-margin" class="marker flowchart-v2" viewBox="0 0 11.5 14" refX="11.5" refY="7" markerUnits="userSpaceOnUse" markerWidth="10.5" markerHeight="14" orient="auto"><path d="M 0 0 L 11.5 7 L 0 14 z" class="arrowMarkerPath" style="stroke-width: 0; stroke-dasharray: 1, 0;"/></marker><marker id="my-svg_flowchart-v2-pointStart-margin" class="marker flowchart-v2" viewBox="0 0 11.5 14" refX="1" refY="7" markerUnits="userSpaceOnUse" markerWidth="11.5" markerHeight="14" orient="auto"><polygon points="0,7 11.5,14 11.5,0" class="arrowMarkerPath" style="stroke-width: 0; stroke-dasharray: 1, 0;"/></marker><marker id="my-svg_flowchart-v2-circleEnd" class="marker flowchart-v2" viewBox="0 0 10 10" refX="11" refY="5" markerUnits="userSpaceOnUse" markerWidth="11" markerHeight="11" orient="auto"><circle cx="5" cy="5" r="5" class="arrowMarkerPath" style="stroke-width: 1; stroke-dasharray: 1, 0;"/></marker><marker id="my-svg_flowchart-v2-circleStart" class="marker flowchart-v2" viewBox="0 0 10 10" refX="-1" refY="5" markerUnits="userSpaceOnUse" markerWidth="11" markerHeight="11" orient="auto"><circle cx="5" cy="5" r="5" class="arrowMarkerPath" style="stroke-width: 1; stroke-dasharray: 1, 0;"/></marker><marker id="my-svg_flowchart-v2-circleEnd-margin" class="marker flowchart-v2" viewBox="0 0 10 10" refY="5" refX="12.25" markerUnits="userSpaceOnUse" markerWidth="14" markerHeight="14" orient="auto"><circle cx="5" cy="5" r="5" class="arrowMarkerPath" style="stroke-width: 0; stroke-dasharray: 1, 0;"/></marker><marker id="my-svg_flowchart-v2-circleStart-margin" class="marker flowchart-v2" viewBox="0 0 10 10" refX="-2" refY="5" markerUnits="userSpaceOnUse" markerWidth="14" markerHeight="14" orient="auto"><circle cx="5" cy="5" r="5" class="arrowMarkerPath" style="stroke-width: 0; stroke-dasharray: 1, 0;"/></marker><marker id="my-svg_flowchart-v2-crossEnd" class="marker cross flowchart-v2" viewBox="0 0 11 11" refX="12" refY="5.2" markerUnits="userSpaceOnUse" markerWidth="11" markerHeight="11" orient="auto"><path d="M 1,1 l 9,9 M 10,1 l -9,9" class="arrowMarkerPath" style="stroke-width: 2; stroke-dasharray: 1, 0;"/></marker><marker id="my-svg_flowchart-v2-crossStart" class="marker cross flowchart-v2" viewBox="0 0 11 11" refX="-1" refY="5.2" markerUnits="userSpaceOnUse" markerWidth="11" markerHeight="11" orient="auto"><path d="M 1,1 l 9,9 M 10,1 l -9,9" class="arrowMarkerPath" style="stroke-width: 2; stroke-dasharray: 1, 0;"/></marker><marker id="my-svg_flowchart-v2-crossEnd-margin" class="marker cross flowchart-v2" viewBox="0 0 15 15" refX="17.7" refY="7.5" markerUnits="userSpaceOnUse" markerWidth="12" markerHeight="12" orient="auto"><path d="M 1,1 L 14,14 M 1,14 L 14,1" class="arrowMarkerPath" style="stroke-width: 2.5;"/></marker><marker id="my-svg_flowchart-v2-crossStart-margin" class="marker cross flowchart-v2" viewBox="0 0 15 15" refX="-3.5" refY="7.5" markerUnits="userSpaceOnUse" markerWidth="12" markerHeight="12" orient="auto"><path d="M 1,1 L 14,14 M 1,14 L 14,1" class="arrowMarkerPath" style="stroke-width: 2.5; stroke-dasharray: 1, 0;"/></marker><g class="root"><g class="clusters"/><g class="edgePaths"><path d="M1056.305,47.5L1056.221,51.583C1056.138,55.667,1055.971,63.833,1055.888,71.417C1055.805,79,1055.805,86,1055.805,89.5L1055.805,93" id="my-svg-L_start_hook_0" class="edge-thickness-normal edge-pattern-solid edge-thickness-normal edge-pattern-solid flowchart-link" style=";" data-edge="true" data-et="edge" data-id="L_start_hook_0" data-points="W3sieCI6MTA1Ni4zMDQ2ODc1LCJ5Ijo0Ny41fSx7IngiOjEwNTUuODA0Njg3NSwieSI6NzJ9LHsieCI6MTA1NS44MDQ2ODc1LCJ5Ijo5N31d" data-look="classic" marker-end="url(#my-svg_flowchart-v2-pointEnd)"/><path d="M1055.805,151L1055.805,155.167C1055.805,159.333,1055.805,167.667,1055.805,175.333C1055.805,183,1055.805,190,1055.805,193.5L1055.805,197" id="my-svg-L_hook_probes_0" class="edge-thickness-normal edge-pattern-solid edge-thickness-normal edge-pattern-solid flowchart-link" style=";" data-edge="true" data-et="edge" data-id="L_hook_probes_0" data-points="W3sieCI6MTA1NS44MDQ2ODc1LCJ5IjoxNTF9LHsieCI6MTA1NS44MDQ2ODc1LCJ5IjoxNzZ9LHsieCI6MTA1NS44MDQ2ODc1LCJ5IjoyMDF9XQ==" data-look="classic" marker-end="url(#my-svg_flowchart-v2-pointEnd)"/><path d="M1055.805,375L1055.805,379.167C1055.805,383.333,1055.805,391.667,1055.805,399.333C1055.805,407,1055.805,414,1055.805,417.5L1055.805,421" id="my-svg-L_probes_classify_0" class="edge-thickness-normal edge-pattern-solid edge-thickness-normal edge-pattern-solid flowchart-link" style=";" data-edge="true" data-et="edge" data-id="L_probes_classify_0" data-points="W3sieCI6MTA1NS44MDQ2ODc1LCJ5IjozNzV9LHsieCI6MTA1NS44MDQ2ODc1LCJ5Ijo0MDB9LHsieCI6MTA1NS44MDQ2ODc1LCJ5Ijo0MjV9XQ==" data-look="classic" marker-end="url(#my-svg_flowchart-v2-pointEnd)"/><path d="M948.831,620.027L895.388,642.022C841.945,664.018,735.058,708.009,681.615,733.504C628.172,759,628.172,766,628.172,769.5L628.172,773" id="my-svg-L_classify_outcome_0" class="edge-thickness-normal edge-pattern-solid edge-thickness-normal edge-pattern-solid flowchart-link" style=";" data-edge="true" data-et="edge" data-id="L_classify_outcome_0" data-points="W3sieCI6OTQ4LjgzMTQ1MjUyOTQ0NDIsInkiOjYyMC4wMjY3NjUwMjk0NDQyfSx7IngiOjYyOC4xNzE4NzUsInkiOjc1Mn0seyJ4Ijo2MjguMTcxODc1LCJ5Ijo3Nzd9XQ==" data-look="classic" marker-end="url(#my-svg_flowchart-v2-pointEnd)"/><path d="M639.134,901.912L641.057,911.906C642.98,921.9,646.826,941.887,648.749,966.548C650.672,991.208,650.672,1020.542,650.672,1045.875C650.672,1071.208,650.672,1092.542,650.672,1114.206C650.672,1135.87,650.672,1157.864,650.672,1179.859C650.672,1201.853,650.672,1223.848,650.672,1245.512C650.672,1267.176,650.672,1288.509,650.672,1309.843C650.672,1331.176,650.672,1352.509,650.672,1375.462C650.672,1398.415,650.672,1422.988,650.672,1435.275L650.672,1447.561" id="my-svg-L_outcome_allow_0" class="edge-thickness-normal edge-pattern-solid edge-thickness-normal edge-pattern-solid flowchart-link" style=";" data-edge="true" data-et="edge" data-id="L_outcome_allow_0" data-points="W3sieCI6NjM5LjEzNDQ0NzgzNzI5MjcsInkiOjkwMS45MTI0MjcxNjI3MDczfSx7IngiOjY1MC42NzE4NzUsInkiOjk2MS44NzV9LHsieCI6NjUwLjY3MTg3NSwieSI6MTA0OS44NzV9LHsieCI6NjUwLjY3MTg3NSwieSI6MTExMy44NzV9LHsieCI6NjUwLjY3MTg3NSwieSI6MTE3OS44NTg3Njg0NjMxMzQ4fSx7IngiOjY1MC42NzE4NzUsInkiOjEyNDUuODQyNTM2OTI2MjY5NX0seyJ4Ijo2NTAuNjcxODc1LCJ5IjoxMzA5Ljg0MjUzNjkyNjI2OTV9LHsieCI6NjUwLjY3MTg3NSwieSI6MTM3My44NDI1MzY5MjYyNjk1fSx7IngiOjY1MC42NzE4NzUsInkiOjE0NTEuNTYxMjg2OTI2MjY5NX1d" data-look="classic" marker-end="url(#my-svg_flowchart-v2-pointEnd)"/><path d="M673.096,867.951L703.654,883.605C734.212,899.259,795.329,930.567,825.887,960.888C856.445,991.208,856.445,1020.542,856.445,1045.875C856.445,1071.208,856.445,1092.542,856.445,1114.206C856.445,1135.87,856.445,1157.864,856.445,1179.859C856.445,1201.853,856.445,1223.848,856.445,1245.512C856.445,1267.176,856.445,1288.509,856.445,1309.843C856.445,1331.176,856.445,1352.509,856.445,1375.462C856.445,1398.415,856.445,1422.988,856.445,1435.275L856.445,1447.561" id="my-svg-L_outcome_log_0" class="edge-thickness-normal edge-pattern-solid edge-thickness-normal edge-pattern-solid flowchart-link" style=";" data-edge="true" data-et="edge" data-id="L_outcome_log_0" data-points="W3sieCI6NjczLjA5NjA3OTIzNDI3NywieSI6ODY3Ljk1MDc5NTc2NTcyM30seyJ4Ijo4NTYuNDQ1MzEyNSwieSI6OTYxLjg3NX0seyJ4Ijo4NTYuNDQ1MzEyNSwieSI6MTA0OS44NzV9LHsieCI6ODU2LjQ0NTMxMjUsInkiOjExMTMuODc1fSx7IngiOjg1Ni40NDUzMTI1LCJ5IjoxMTc5Ljg1ODc2ODQ2MzEzNDh9LHsieCI6ODU2LjQ0NTMxMjUsInkiOjEyNDUuODQyNTM2OTI2MjY5NX0seyJ4Ijo4NTYuNDQ1MzEyNSwieSI6MTMwOS44NDI1MzY5MjYyNjk1fSx7IngiOjg1Ni40NDUzMTI1LCJ5IjoxMzczLjg0MjUzNjkyNjI2OTV9LHsieCI6ODU2LjQ0NTMxMjUsInkiOjE0NTEuNTYxMjg2OTI2MjY5NX1d" data-look="classic" marker-end="url(#my-svg_flowchart-v2-pointEnd)"/><path d="M683.11,857.937L756.322,875.26C829.534,892.583,975.959,927.229,1049.171,959.219C1122.383,991.208,1122.383,1020.542,1122.383,1045.875C1122.383,1071.208,1122.383,1092.542,1122.383,1114.206C1122.383,1135.87,1122.383,1157.864,1122.383,1179.859C1122.383,1201.853,1122.383,1223.848,1122.383,1245.512C1122.383,1267.176,1122.383,1288.509,1122.383,1309.843C1122.383,1331.176,1122.383,1352.509,1122.383,1375.462C1122.383,1398.415,1122.383,1422.988,1122.383,1435.275L1122.383,1447.561" id="my-svg-L_outcome_explain_0" class="edge-thickness-normal edge-pattern-solid edge-thickness-normal edge-pattern-solid flowchart-link" style=";" data-edge="true" data-et="edge" data-id="L_outcome_explain_0" data-points="W3sieCI6NjgzLjExMDE3Mzk1Njg4MTksInkiOjg1Ny45MzY3MDEwNDMxMTgxfSx7IngiOjExMjIuMzgyODEyNSwieSI6OTYxLjg3NX0seyJ4IjoxMTIyLjM4MjgxMjUsInkiOjEwNDkuODc1fSx7IngiOjExMjIuMzgyODEyNSwieSI6MTExMy44NzV9LHsieCI6MTEyMi4zODI4MTI1LCJ5IjoxMTc5Ljg1ODc2ODQ2MzEzNDh9LHsieCI6MTEyMi4zODI4MTI1LCJ5IjoxMjQ1Ljg0MjUzNjkyNjI2OTV9LHsieCI6MTEyMi4zODI4MTI1LCJ5IjoxMzA5Ljg0MjUzNjkyNjI2OTV9LHsieCI6MTEyMi4zODI4MTI1LCJ5IjoxMzczLjg0MjUzNjkyNjI2OTV9LHsieCI6MTEyMi4zODI4MTI1LCJ5IjoxNDUxLjU2MTI4NjkyNjI2OTV9XQ==" data-look="classic" marker-end="url(#my-svg_flowchart-v2-pointEnd)"/><path d="M572.704,857.407L495.253,874.818C417.803,892.23,262.901,927.052,185.451,951.964C108,976.875,108,991.875,108,999.375L108,1006.875" id="my-svg-L_outcome_defer_0" class="edge-thickness-normal edge-pattern-solid edge-thickness-normal edge-pattern-solid flowchart-link" style=";" data-edge="true" data-et="edge" data-id="L_outcome_defer_0" data-points="W3sieCI6NTcyLjcwMzg4NDUwMzM3MjEsInkiOjg1Ny40MDcwMDk1MDMzNzIxfSx7IngiOjEwOCwieSI6OTYxLjg3NX0seyJ4IjoxMDgsInkiOjEwMTAuODc1fV0=" data-look="classic" marker-end="url(#my-svg_flowchart-v2-pointEnd)"/><path d="M585.594,870.297L559.968,885.56C534.341,900.823,483.089,931.349,457.462,956.112C431.836,980.875,431.836,999.875,431.836,1009.375L431.836,1018.875" id="my-svg-L_outcome_queue_0" class="edge-thickness-normal edge-pattern-solid edge-thickness-normal edge-pattern-solid flowchart-link" style=";" data-edge="true" data-et="edge" data-id="L_outcome_queue_0" data-points="W3sieCI6NTg1LjU5MzgyMjg2NjUzMDMsInkiOjg3MC4yOTY5NDc4NjY1MzAzfSx7IngiOjQzMS44MzU5Mzc1LCJ5Ijo5NjEuODc1fSx7IngiOjQzMS44MzU5Mzc1LCJ5IjoxMDIyLjg3NX1d" data-look="classic" marker-end="url(#my-svg_flowchart-v2-pointEnd)"/><path d="M686.534,854.513L795.602,872.406C904.669,890.3,1122.803,926.088,1231.87,958.648C1340.938,991.208,1340.938,1020.542,1340.938,1045.875C1340.938,1071.208,1340.938,1092.542,1340.938,1114.206C1340.938,1135.87,1340.938,1157.864,1340.938,1179.859C1340.938,1201.853,1340.938,1223.848,1340.938,1245.512C1340.938,1267.176,1340.938,1288.509,1340.938,1309.843C1340.938,1331.176,1340.938,1352.509,1340.938,1375.462C1340.938,1398.415,1340.938,1422.988,1340.938,1435.275L1340.938,1447.561" id="my-svg-L_outcome_block_0" class="edge-thickness-normal edge-pattern-solid edge-thickness-normal edge-pattern-solid flowchart-link" style=";" data-edge="true" data-et="edge" data-id="L_outcome_block_0" data-points="W3sieCI6Njg2LjUzNDMzNDA0MDMxOTQsInkiOjg1NC41MTI1NDA5NTk2ODA2fSx7IngiOjEzNDAuOTM3NSwieSI6OTYxLjg3NX0seyJ4IjoxMzQwLjkzNzUsInkiOjEwNDkuODc1fSx7IngiOjEzNDAuOTM3NSwieSI6MTExMy44NzV9LHsieCI6MTM0MC45Mzc1LCJ5IjoxMTc5Ljg1ODc2ODQ2MzEzNDh9LHsieCI6MTM0MC45Mzc1LCJ5IjoxMjQ1Ljg0MjUzNjkyNjI2OTV9LHsieCI6MTM0MC45Mzc1LCJ5IjoxMzA5Ljg0MjUzNjkyNjI2OTV9LHsieCI6MTM0MC45Mzc1LCJ5IjoxMzczLjg0MjUzNjkyNjI2OTV9LHsieCI6MTM0MC45Mzc1LCJ5IjoxNDUxLjU2MTI4NjkyNjI2OTV9XQ==" data-look="classic" marker-end="url(#my-svg_flowchart-v2-pointEnd)"/><path d="M108,1088.875L108,1093.042C108,1097.208,108,1105.542,111.641,1113.712C115.282,1121.883,122.564,1129.891,126.205,1133.895L129.846,1137.899" id="my-svg-L_defer_resume_0" class="edge-thickness-normal edge-pattern-solid edge-thickness-normal edge-pattern-solid flowchart-link" style=";" data-edge="true" data-et="edge" data-id="L_defer_resume_0" data-points="W3sieCI6MTA4LCJ5IjoxMDg4Ljg3NX0seyJ4IjoxMDgsInkiOjExMTMuODc1fSx7IngiOjEzMi41MzY3MzI5Nzk5MDkxMiwieSI6MTE0MC44NTg3Njg0NjMxMzQ4fV0=" data-look="classic" marker-end="url(#my-svg_flowchart-v2-pointEnd)"/><path d="M210.928,1140.859L215.878,1136.361C220.828,1131.864,230.728,1122.87,235.679,1107.706C240.629,1092.542,240.629,1071.208,240.629,1045.875C240.629,1020.542,240.629,991.208,295.883,959.869C351.137,928.53,461.645,895.186,516.899,878.513L572.153,861.841" id="my-svg-L_resume_outcome_0" class="edge-thickness-normal edge-pattern-solid edge-thickness-normal edge-pattern-solid flowchart-link" style=";" data-edge="true" data-et="edge" data-id="L_resume_outcome_0" data-points="W3sieCI6MjEwLjkyNzYzODI2MjAxNDk3LCJ5IjoxMTQwLjg1ODc2ODQ2MzEzNDh9LHsieCI6MjQwLjYyODkwNjI1LCJ5IjoxMTEzLjg3NX0seyJ4IjoyNDAuNjI4OTA2MjUsInkiOjEwNDkuODc1fSx7IngiOjI0MC42Mjg5MDYyNSwieSI6OTYxLjg3NX0seyJ4Ijo1NzUuOTgyMTQzMDQ3MjY0LCJ5Ijo4NjAuNjg1MjY4MDQ3MjY0fV0=" data-look="classic" marker-end="url(#my-svg_flowchart-v2-pointEnd)"/><path d="M431.836,1076.875L431.836,1083.042C431.836,1089.208,431.836,1101.542,431.836,1111.208C431.836,1120.875,431.836,1127.875,431.836,1131.375L431.836,1134.875" id="my-svg-L_queue_qtbl_0" class="edge-thickness-normal edge-pattern-solid edge-thickness-normal edge-pattern-solid flowchart-link" style=";" data-edge="true" data-et="edge" data-id="L_queue_qtbl_0" data-points="W3sieCI6NDMxLjgzNTkzNzUsInkiOjEwNzYuODc1fSx7IngiOjQzMS44MzU5Mzc1LCJ5IjoxMTEzLjg3NX0seyJ4Ijo0MzEuODM1OTM3NSwieSI6MTEzOC44NzV9XQ==" data-look="classic" marker-end="url(#my-svg_flowchart-v2-pointEnd)"/><path d="M431.836,1220.843L431.836,1225.009C431.836,1229.176,431.836,1237.509,431.836,1245.176C431.836,1252.843,431.836,1259.843,431.836,1263.343L431.836,1266.843" id="my-svg-L_qtbl_brief_0" class="edge-thickness-normal edge-pattern-solid edge-thickness-normal edge-pattern-solid flowchart-link" style=";" data-edge="true" data-et="edge" data-id="L_qtbl_brief_0" data-points="W3sieCI6NDMxLjgzNTkzNzUsInkiOjEyMjAuODQyNTM2OTI2MjY5NX0seyJ4Ijo0MzEuODM1OTM3NSwieSI6MTI0NS44NDI1MzY5MjYyNjk1fSx7IngiOjQzMS44MzU5Mzc1LCJ5IjoxMjcwLjg0MjUzNjkyNjI2OTV9XQ==" data-look="classic" marker-end="url(#my-svg_flowchart-v2-pointEnd)"/><path d="M431.836,1348.843L431.836,1353.009C431.836,1357.176,431.836,1365.509,431.836,1373.176C431.836,1380.843,431.836,1387.843,431.836,1391.343L431.836,1394.843" id="my-svg-L_brief_ownerd_0" class="edge-thickness-normal edge-pattern-solid edge-thickness-normal edge-pattern-solid flowchart-link" style=";" data-edge="true" data-et="edge" data-id="L_brief_ownerd_0" data-points="W3sieCI6NDMxLjgzNTkzNzUsInkiOjEzNDguODQyNTM2OTI2MjY5NX0seyJ4Ijo0MzEuODM1OTM3NSwieSI6MTM3My44NDI1MzY5MjYyNjk1fSx7IngiOjQzMS44MzU5Mzc1LCJ5IjoxMzk4Ljg0MjUzNjkyNjI2OTV9XQ==" data-look="classic" marker-end="url(#my-svg_flowchart-v2-pointEnd)"/><path d="M413.302,1539.746L410.499,1549.002C407.695,1558.258,402.088,1576.769,436.488,1596.444C470.889,1616.118,545.298,1636.957,582.502,1647.376L619.707,1657.795" id="my-svg-L_ownerd_emit_0" class="edge-thickness-normal edge-pattern-solid edge-thickness-normal edge-pattern-solid flowchart-link" style=";" data-edge="true" data-et="edge" data-id="L_ownerd_emit_0" data-points="W3sieCI6NDEzLjMwMjI2NDk0NDcwOTg2LCJ5IjoxNTM5Ljc0NjM2NDM3MDk3OTN9LHsieCI6Mzk2LjQ4MDQ2ODc1LCJ5IjoxNTk1LjI4MDAzNjkyNjI2OTV9LHsieCI6NjIzLjU1ODU5Mzc1LCJ5IjoxNjU4Ljg3MzQzODIzMDI1Nn1d" data-look="classic" marker-end="url(#my-svg_flowchart-v2-pointEnd)"/><path d="M466.207,1523.909L475.222,1535.804C484.238,1547.7,502.269,1571.49,527.882,1590.5C553.495,1609.511,586.688,1623.741,603.285,1630.856L619.882,1637.972" id="my-svg-L_ownerd_emit_2" class="edge-thickness-normal edge-pattern-solid edge-thickness-normal edge-pattern-solid flowchart-link" style=";" data-edge="true" data-et="edge" data-id="L_ownerd_emit_2" data-points="W3sieCI6NDY2LjIwNjY1MjIwMzg2NjU1LCJ5IjoxNTIzLjkwOTMyMjIyMjQwMjh9LHsieCI6NTIwLjMwMDc4MTI1LCJ5IjoxNTk1LjI4MDAzNjkyNjI2OTV9LHsieCI6NjIzLjU1ODU5Mzc1LCJ5IjoxNjM5LjU0NzcxMjg0ODE2Mzl9XQ==" data-look="classic" marker-end="url(#my-svg_flowchart-v2-pointEnd)"/><path d="M650.672,1505.561L650.672,1520.514C650.672,1535.468,650.672,1565.374,656.538,1586.029C662.405,1606.684,674.138,1618.088,680.005,1623.79L685.872,1629.492" id="my-svg-L_allow_emit_0" class="edge-thickness-normal edge-pattern-solid edge-thickness-normal edge-pattern-solid flowchart-link" style=";" data-edge="true" data-et="edge" data-id="L_allow_emit_0" data-points="W3sieCI6NjUwLjY3MTg3NSwieSI6MTUwNS41NjEyODY5MjYyNjk1fSx7IngiOjY1MC42NzE4NzUsInkiOjE1OTUuMjgwMDM2OTI2MjY5NX0seyJ4Ijo2ODguNzM5OTYwOTM3NSwieSI6MTYzMi4yODAwMzY5MjYyNjk1fV0=" data-look="classic" marker-end="url(#my-svg_flowchart-v2-pointEnd)"/><path d="M856.445,1505.561L856.445,1520.514C856.445,1535.468,856.445,1565.374,850.579,1586.029C844.712,1606.684,832.979,1618.088,827.112,1623.79L821.246,1629.492" id="my-svg-L_log_emit_0" class="edge-thickness-normal edge-pattern-solid edge-thickness-normal edge-pattern-solid flowchart-link" style=";" data-edge="true" data-et="edge" data-id="L_log_emit_0" data-points="W3sieCI6ODU2LjQ0NTMxMjUsInkiOjE1MDUuNTYxMjg2OTI2MjY5NX0seyJ4Ijo4NTYuNDQ1MzEyNSwieSI6MTU5NS4yODAwMzY5MjYyNjk1fSx7IngiOjgxOC4zNzcyMjY1NjI1LCJ5IjoxNjMyLjI4MDAzNjkyNjI2OTV9XQ==" data-look="classic" marker-end="url(#my-svg_flowchart-v2-pointEnd)"/><path d="M1122.383,1505.561L1122.383,1520.514C1122.383,1535.468,1122.383,1565.374,1083.222,1590.945C1044.062,1616.515,965.74,1637.751,926.58,1648.368L887.419,1658.986" id="my-svg-L_explain_emit_0" class="edge-thickness-normal edge-pattern-solid edge-thickness-normal edge-pattern-solid flowchart-link" style=";" data-edge="true" data-et="edge" data-id="L_explain_emit_0" data-points="W3sieCI6MTEyMi4zODI4MTI1LCJ5IjoxNTA1LjU2MTI4NjkyNjI2OTV9LHsieCI6MTEyMi4zODI4MTI1LCJ5IjoxNTk1LjI4MDAzNjkyNjI2OTV9LHsieCI6ODgzLjU1ODU5Mzc1LCJ5IjoxNjYwLjAzMjg5Mzg3MjQzNTF9XQ==" data-look="classic" marker-end="url(#my-svg_flowchart-v2-pointEnd)"/><path d="M1340.938,1505.561L1340.938,1520.514C1340.938,1535.468,1340.938,1565.374,1265.365,1593.193C1189.792,1621.012,1038.647,1646.744,963.074,1659.61L887.502,1672.476" id="my-svg-L_block_emit_0" class="edge-thickness-normal edge-pattern-solid edge-thickness-normal edge-pattern-solid flowchart-link" style=";" data-edge="true" data-et="edge" data-id="L_block_emit_0" data-points="W3sieCI6MTM0MC45Mzc1LCJ5IjoxNTA1LjU2MTI4NjkyNjI2OTV9LHsieCI6MTM0MC45Mzc1LCJ5IjoxNTk1LjI4MDAzNjkyNjI2OTV9LHsieCI6ODgzLjU1ODU5Mzc1LCJ5IjoxNjczLjE0NzgxNTUyNDI1MTl9XQ==" data-look="classic" marker-end="url(#my-svg_flowchart-v2-pointEnd)"/><path d="M686.534,1758.28L682.102,1762.447C677.669,1766.613,668.803,1774.947,664.37,1784.03C659.938,1793.114,659.938,1802.947,659.938,1807.864L659.938,1812.781" id="my-svg-L_emit_action_0" class="edge-thickness-normal edge-pattern-solid edge-thickness-normal edge-pattern-solid flowchart-link" style=";" data-edge="true" data-et="edge" data-id="L_emit_action_0" data-points="W3sieCI6Njg2LjUzNDQwMTYzMzUyMjcsInkiOjE3NTguMjgwMDM2OTI2MjY5NX0seyJ4Ijo2NTkuOTM3NSwieSI6MTc4My4yODAwMzY5MjYyNjk1fSx7IngiOjY1OS45Mzc1LCJ5IjoxODE2Ljc4MDgyNjU2ODYwMzV9XQ==" data-look="classic" marker-end="url(#my-svg_flowchart-v2-pointEnd)"/><path d="M883.559,1714.865L959.245,1726.268C1034.932,1737.67,1186.306,1760.475,1261.993,1775.378C1337.68,1790.28,1337.68,1797.28,1337.68,1800.78L1337.68,1804.28" id="my-svg-L_emit_events_0" class="edge-thickness-normal edge-pattern-solid edge-thickness-normal edge-pattern-solid flowchart-link" style=";" data-edge="true" data-et="edge" data-id="L_emit_events_0" data-points="W3sieCI6ODgzLjU1ODU5Mzc1LCJ5IjoxNzE0Ljg2NTAxNzAzMTI2MTd9LHsieCI6MTMzNy42Nzk2ODc1LCJ5IjoxNzgzLjI4MDAzNjkyNjI2OTV9LHsieCI6MTMzNy42Nzk2ODc1LCJ5IjoxODA4LjI4MDAzNjkyNjI2OTV9XQ==" data-look="classic" marker-end="url(#my-svg_flowchart-v2-pointEnd)"/><path d="M1337.68,1879.282L1337.68,1883.448C1337.68,1887.615,1337.68,1895.948,1341.13,1903.795C1344.58,1911.642,1351.481,1919.003,1354.931,1922.683L1358.381,1926.363" id="my-svg-L_events_calib_0" class="edge-thickness-normal edge-pattern-solid edge-thickness-normal edge-pattern-solid flowchart-link" style=";" data-edge="true" data-et="edge" data-id="L_events_calib_0" data-points="W3sieCI6MTMzNy42Nzk2ODc1LCJ5IjoxODc5LjI4MTYxNjIxMDkzNzV9LHsieCI6MTMzNy42Nzk2ODc1LCJ5IjoxOTA0LjI4MTYxNjIxMDkzNzV9LHsieCI6MTM2MS4xMTcxODc1LCJ5IjoxOTI5LjI4MTYxNjIxMDkzNzV9XQ==" data-look="classic" marker-end="url(#my-svg_flowchart-v2-pointEnd)"/><path d="M1449.359,1929.282L1451.288,1925.115C1453.218,1920.948,1457.078,1912.615,1459.008,1898.365C1460.938,1884.115,1460.938,1863.948,1460.938,1843.781C1460.938,1823.614,1460.938,1803.447,1460.938,1778.697C1460.938,1753.947,1460.938,1724.613,1460.938,1693.28C1460.938,1661.947,1460.938,1628.613,1460.938,1592.494C1460.938,1556.374,1460.938,1517.468,1460.938,1480.561C1460.938,1443.655,1460.938,1408.749,1460.938,1380.629C1460.938,1352.509,1460.938,1331.176,1460.938,1309.843C1460.938,1288.509,1460.938,1267.176,1460.938,1245.512C1460.938,1223.848,1460.938,1201.853,1460.938,1179.859C1460.938,1157.864,1460.938,1135.87,1460.938,1114.206C1460.938,1092.542,1460.938,1071.208,1460.938,1045.875C1460.938,1020.542,1460.938,991.208,1460.938,957.052C1460.938,922.896,1460.938,883.917,1460.938,848.938C1460.938,813.958,1460.938,782.979,1411.572,746.044C1362.206,709.108,1263.474,666.217,1214.108,644.771L1164.742,623.325" id="my-svg-L_calib_classify_0" class="edge-thickness-normal edge-pattern-dotted edge-thickness-normal edge-pattern-solid flowchart-link" style=";" data-edge="true" data-et="edge" data-id="L_calib_classify_0" data-points="W3sieCI6MTQ0OS4zNTg1NzU5OTQzMTgyLCJ5IjoxOTI5LjI4MTYxNjIxMDkzNzV9LHsieCI6MTQ2MC45Mzc1LCJ5IjoxOTA0LjI4MTYxNjIxMDkzNzV9LHsieCI6MTQ2MC45Mzc1LCJ5IjoxODQzLjc4MDgyNjU2ODYwMzV9LHsieCI6MTQ2MC45Mzc1LCJ5IjoxNzgzLjI4MDAzNjkyNjI2OTV9LHsieCI6MTQ2MC45Mzc1LCJ5IjoxNjk1LjI4MDAzNjkyNjI2OTV9LHsieCI6MTQ2MC45Mzc1LCJ5IjoxNTk1LjI4MDAzNjkyNjI2OTV9LHsieCI6MTQ2MC45Mzc1LCJ5IjoxNDc4LjU2MTI4NjkyNjI2OTV9LHsieCI6MTQ2MC45Mzc1LCJ5IjoxMzczLjg0MjUzNjkyNjI2OTV9LHsieCI6MTQ2MC45Mzc1LCJ5IjoxMzA5Ljg0MjUzNjkyNjI2OTV9LHsieCI6MTQ2MC45Mzc1LCJ5IjoxMjQ1Ljg0MjUzNjkyNjI2OTV9LHsieCI6MTQ2MC45Mzc1LCJ5IjoxMTc5Ljg1ODc2ODQ2MzEzNDh9LHsieCI6MTQ2MC45Mzc1LCJ5IjoxMTEzLjg3NX0seyJ4IjoxNDYwLjkzNzUsInkiOjEwNDkuODc1fSx7IngiOjE0NjAuOTM3NSwieSI6OTYxLjg3NX0seyJ4IjoxNDYwLjkzNzUsInkiOjg0NC45Mzc1fSx7IngiOjE0NjAuOTM3NSwieSI6NzUyfSx7IngiOjExNjEuMDczMzE2OTI3OTc2LCJ5Ijo2MjEuNzMxMzcwNTcyMDIzOX1d" data-look="classic" marker-end="url(#my-svg_flowchart-v2-pointEnd)"/></g><g class="edgeLabels"><g class="edgeLabel"><g class="label" data-id="L_start_hook_0" transform="translate(0, 0)"><foreignObject width="0" height="0"><div xmlns="http://www.w3.org/1999/xhtml" class="labelBkg" style="display: table-cell; white-space: nowrap; line-height: 1.5; max-width: 200px; text-align: center;"><span class="edgeLabel"></span></div></foreignObject></g></g><g class="edgeLabel"><g class="label" data-id="L_hook_probes_0" transform="translate(0, 0)"><foreignObject width="0" height="0"><div xmlns="http://www.w3.org/1999/xhtml" class="labelBkg" style="display: table-cell; white-space: nowrap; line-height: 1.5; max-width: 200px; text-align: center;"><span class="edgeLabel"></span></div></foreignObject></g></g><g class="edgeLabel"><g class="label" data-id="L_probes_classify_0" transform="translate(0, 0)"><foreignObject width="0" height="0"><div xmlns="http://www.w3.org/1999/xhtml" class="labelBkg" style="display: table-cell; white-space: nowrap; line-height: 1.5; max-width: 200px; text-align: center;"><span class="edgeLabel"></span></div></foreignObject></g></g><g class="edgeLabel"><g class="label" data-id="L_classify_outcome_0" transform="translate(0, 0)"><foreignObject width="0" height="0"><div xmlns="http://www.w3.org/1999/xhtml" class="labelBkg" style="display: table-cell; white-space: nowrap; line-height: 1.5; max-width: 200px; text-align: center;"><span class="edgeLabel"></span></div></foreignObject></g></g><g class="edgeLabel" transform="translate(650.671875, 1179.8587684631348)"><g class="label" data-id="L_outcome_allow_0" transform="translate(-100, -24)"><foreignObject width="200" height="48"><div xmlns="http://www.w3.org/1999/xhtml" class="labelBkg" style="display: table; white-space: break-spaces; line-height: 1.5; max-width: 200px; text-align: center; width: 200px;"><span class="edgeLabel"><p>low risk, owner preference known</p></span></div></foreignObject></g></g><g class="edgeLabel" transform="translate(856.4453125, 1179.8587684631348)"><g class="label" data-id="L_outcome_log_0" transform="translate(-73.515625, -12)"><foreignObject width="147.03125" height="24"><div xmlns="http://www.w3.org/1999/xhtml" class="labelBkg" style="display: table-cell; white-space: nowrap; line-height: 1.5; max-width: 200px; text-align: center;"><span class="edgeLabel"><p>low risk, log-explicit</p></span></div></foreignObject></g></g><g class="edgeLabel" transform="translate(1122.3828125, 1179.8587684631348)"><g class="label" data-id="L_outcome_explain_0" transform="translate(-82.0234375, -12)"><foreignObject width="164.046875" height="24"><div xmlns="http://www.w3.org/1999/xhtml" class="labelBkg" style="display: table-cell; white-space: nowrap; line-height: 1.5; max-width: 200px; text-align: center;"><span class="edgeLabel"><p>owner needs informing</p></span></div></foreignObject></g></g><g class="edgeLabel" transform="translate(108, 961.875)"><g class="label" data-id="L_outcome_defer_0" transform="translate(-100, -24)"><foreignObject width="200" height="48"><div xmlns="http://www.w3.org/1999/xhtml" class="labelBkg" style="display: table; white-space: break-spaces; line-height: 1.5; max-width: 200px; text-align: center; width: 200px;"><span class="edgeLabel"><p>state probe needs async work</p></span></div></foreignObject></g></g><g class="edgeLabel" transform="translate(431.8359375, 961.875)"><g class="label" data-id="L_outcome_queue_0" transform="translate(-98.578125, -12)"><foreignObject width="197.15625" height="24"><div xmlns="http://www.w3.org/1999/xhtml" class="labelBkg" style="display: table-cell; white-space: nowrap; line-height: 1.5; max-width: 200px; text-align: center;"><span class="edgeLabel"><p>multiple viable, owner pick</p></span></div></foreignObject></g></g><g class="edgeLabel" transform="translate(1340.9375, 1179.8587684631348)"><g class="label" data-id="L_outcome_block_0" transform="translate(-100, -24)"><foreignObject width="200" height="48"><div xmlns="http://www.w3.org/1999/xhtml" class="labelBkg" style="display: table; white-space: break-spaces; line-height: 1.5; max-width: 200px; text-align: center; width: 200px;"><span class="edgeLabel"><p>destructive or convergence stall</p></span></div></foreignObject></g></g><g class="edgeLabel"><g class="label" data-id="L_defer_resume_0" transform="translate(0, 0)"><foreignObject width="0" height="0"><div xmlns="http://www.w3.org/1999/xhtml" class="labelBkg" style="display: table-cell; white-space: nowrap; line-height: 1.5; max-width: 200px; text-align: center;"><span class="edgeLabel"></span></div></foreignObject></g></g><g class="edgeLabel"><g class="label" data-id="L_resume_outcome_0" transform="translate(0, 0)"><foreignObject width="0" height="0"><div xmlns="http://www.w3.org/1999/xhtml" class="labelBkg" style="display: table-cell; white-space: nowrap; line-height: 1.5; max-width: 200px; text-align: center;"><span class="edgeLabel"></span></div></foreignObject></g></g><g class="edgeLabel"><g class="label" data-id="L_queue_qtbl_0" transform="translate(0, 0)"><foreignObject width="0" height="0"><div xmlns="http://www.w3.org/1999/xhtml" class="labelBkg" style="display: table-cell; white-space: nowrap; line-height: 1.5; max-width: 200px; text-align: center;"><span class="edgeLabel"></span></div></foreignObject></g></g><g class="edgeLabel"><g class="label" data-id="L_qtbl_brief_0" transform="translate(0, 0)"><foreignObject width="0" height="0"><div xmlns="http://www.w3.org/1999/xhtml" class="labelBkg" style="display: table-cell; white-space: nowrap; line-height: 1.5; max-width: 200px; text-align: center;"><span class="edgeLabel"></span></div></foreignObject></g></g><g class="edgeLabel"><g class="label" data-id="L_brief_ownerd_0" transform="translate(0, 0)"><foreignObject width="0" height="0"><div xmlns="http://www.w3.org/1999/xhtml" class="labelBkg" style="display: table-cell; white-space: nowrap; line-height: 1.5; max-width: 200px; text-align: center;"><span class="edgeLabel"></span></div></foreignObject></g></g><g class="edgeLabel" transform="translate(482.08165, 1619.25271)"><g class="label" data-id="L_ownerd_emit_0" transform="translate(-28.8046875, -12)"><foreignObject width="57.609375" height="24"><div xmlns="http://www.w3.org/1999/xhtml" class="labelBkg" style="display: table-cell; white-space: nowrap; line-height: 1.5; max-width: 200px; text-align: center;"><span class="edgeLabel"><p>approve</p></span></div></foreignObject></g></g><g class="edgeLabel" transform="translate(530.77511, 1599.77049)"><g class="label" data-id="L_ownerd_emit_2" transform="translate(-21.90625, -12)"><foreignObject width="43.8125" height="24"><div xmlns="http://www.w3.org/1999/xhtml" class="labelBkg" style="display: table-cell; white-space: nowrap; line-height: 1.5; max-width: 200px; text-align: center;"><span class="edgeLabel"><p>reject</p></span></div></foreignObject></g></g><g class="edgeLabel"><g class="label" data-id="L_allow_emit_0" transform="translate(0, 0)"><foreignObject width="0" height="0"><div xmlns="http://www.w3.org/1999/xhtml" class="labelBkg" style="display: table-cell; white-space: nowrap; line-height: 1.5; max-width: 200px; text-align: center;"><span class="edgeLabel"></span></div></foreignObject></g></g><g class="edgeLabel"><g class="label" data-id="L_log_emit_0" transform="translate(0, 0)"><foreignObject width="0" height="0"><div xmlns="http://www.w3.org/1999/xhtml" class="labelBkg" style="display: table-cell; white-space: nowrap; line-height: 1.5; max-width: 200px; text-align: center;"><span class="edgeLabel"></span></div></foreignObject></g></g><g class="edgeLabel"><g class="label" data-id="L_explain_emit_0" transform="translate(0, 0)"><foreignObject width="0" height="0"><div xmlns="http://www.w3.org/1999/xhtml" class="labelBkg" style="display: table-cell; white-space: nowrap; line-height: 1.5; max-width: 200px; text-align: center;"><span class="edgeLabel"></span></div></foreignObject></g></g><g class="edgeLabel"><g class="label" data-id="L_block_emit_0" transform="translate(0, 0)"><foreignObject width="0" height="0"><div xmlns="http://www.w3.org/1999/xhtml" class="labelBkg" style="display: table-cell; white-space: nowrap; line-height: 1.5; max-width: 200px; text-align: center;"><span class="edgeLabel"></span></div></foreignObject></g></g><g class="edgeLabel"><g class="label" data-id="L_emit_action_0" transform="translate(0, 0)"><foreignObject width="0" height="0"><div xmlns="http://www.w3.org/1999/xhtml" class="labelBkg" style="display: table-cell; white-space: nowrap; line-height: 1.5; max-width: 200px; text-align: center;"><span class="edgeLabel"></span></div></foreignObject></g></g><g class="edgeLabel"><g class="label" data-id="L_emit_events_0" transform="translate(0, 0)"><foreignObject width="0" height="0"><div xmlns="http://www.w3.org/1999/xhtml" class="labelBkg" style="display: table-cell; white-space: nowrap; line-height: 1.5; max-width: 200px; text-align: center;"><span class="edgeLabel"></span></div></foreignObject></g></g><g class="edgeLabel"><g class="label" data-id="L_events_calib_0" transform="translate(0, 0)"><foreignObject width="0" height="0"><div xmlns="http://www.w3.org/1999/xhtml" class="labelBkg" style="display: table-cell; white-space: nowrap; line-height: 1.5; max-width: 200px; text-align: center;"><span class="edgeLabel"></span></div></foreignObject></g></g><g class="edgeLabel" transform="translate(1460.9375, 1309.8425369262695)"><g class="label" data-id="L_calib_classify_0" transform="translate(-61.171875, -12)"><foreignObject width="122.34375" height="24"><div xmlns="http://www.w3.org/1999/xhtml" class="labelBkg" style="display: table-cell; white-space: nowrap; line-height: 1.5; max-width: 200px; text-align: center;"><span class="edgeLabel"><p>threshold update</p></span></div></foreignObject></g></g></g><g class="nodes"><g class="node default" id="my-svg-flowchart-start-0" data-look="classic" transform="translate(1055.8046875, 27.5)"><g class="basic label-container outer-path"><path d="M-54.3515625 -19.5 C-25.54930270419646 -19.5, 3.2529570916070796 -19.5, 54.3515625 -19.5 C54.3515625 -19.5, 54.3515625 -19.5, 54.3515625 -19.5 C54.701269683590866 -19.48878557128598, 55.05097686718173 -19.47757114257196, 55.6009317896239 -19.45993515863156 C55.86614175402957 -19.434350672326993, 56.13135171843523 -19.408766186022426, 56.845167152847864 -19.3399052695533 C57.2070846109516 -19.281393261638893, 57.56900206905533 -19.22288125372449, 58.07915575967676 -19.140403561325776 C58.403080380959615 -19.066469880323663, 58.72700500224247 -18.99253619932155, 59.29782688623539 -18.862249829261074 C59.6011383409544 -18.772228581614787, 59.90444979567341 -18.682207333968503, 60.496172751460605 -18.50658706670804 C60.768045580325214 -18.406535352520983, 61.03991840918982 -18.306483638333926, 61.6692690951478 -18.074876768247425 C61.936680429117835 -17.95650170317427, 62.20409176308788 -17.838126638101112, 62.81229541279238 -17.568892924097174 C63.1811344583606 -17.376469830276918, 63.549973503928825 -17.18404673645666, 63.92055476407678 -16.990714730406097 C64.32625707946693 -16.74477560264515, 64.73195939485707 -16.498836474884197, 64.9894930736057 -16.342718045390892 C65.37391087303686 -16.074564829686043, 65.75832867246802 -15.806411613981194, 66.01471784457871 -15.627565626425154 C66.35734020935418 -15.354333408080763, 66.69996257412963 -15.081101189736373, 66.99201620850187 -14.848196188198123 C67.3029531772756 -14.565811460099194, 67.61389014604933 -14.283426732000265, 67.91737223676799 -14.007812326905688 C68.17021476253805 -13.74673166029067, 68.42305728830812 -13.485650993675653, 68.78698344296865 -13.10986736009568 C68.96445184748313 -12.90140287391468, 69.14192025199762 -12.69293838773368, 69.59727640812658 -12.158051136245305 C69.79488343875813 -11.89327571756985, 69.9924904693897 -11.628500298894394, 70.34492146464063 -11.156274872382312 C70.50931793294524 -10.903717750433582, 70.67371440124985 -10.651160628484853, 71.02684637860425 -10.108655082055241 C71.17779297173429 -9.840634120952839, 71.32873956486435 -9.572613159850436, 71.6402489742735 -9.019496659696287 C71.8133487013583 -8.660051372663895, 71.98644842844308 -8.300606085631504, 72.18260864880834 -7.893275190886684 C72.29196697949158 -7.623157999799599, 72.40132531017481 -7.353040808712513, 72.65169672997033 -6.734618561215508 C72.77594540695081 -6.360401342488557, 72.90019408393131 -5.986184123761607, 73.04558563421489 -5.548287939305138 C73.15796691236051 -5.119729419381852, 73.27034819050611 -4.691170899458568, 73.36265678754556 -4.339158212148133 C73.45196309126214 -3.8805892174574805, 73.54126939497871 -3.422020222766828, 73.60160727658177 -3.1121979531509023 C73.64560404344691 -2.7709677174892215, 73.68960081031204 -2.4297374818275403, 73.76145520250937 -1.872449005199798 C73.79085514723968 -1.414521134816792, 73.82025509197001 -0.9565932644337861, 73.84154371591342 -0.6250057626472757 C73.84154371591342 -0.16089512279586393, 73.84154371591342 0.30321551705554783, 73.84154371591342 0.625005762647271 C73.82276273124035 0.9175347586683219, 73.80398174656727 1.2100637546893727, 73.76145520250937 1.8724490051997846 C73.70371813466232 2.3202463019478485, 73.64598106681527 2.768043598695913, 73.60160727658177 3.1121979531508885 C73.51775653815085 3.5427537731338394, 73.43390579971992 3.97330959311679, 73.36265678754556 4.339158212148129 C73.2882147532153 4.623037952431166, 73.21377271888505 4.906917692714203, 73.04558563421489 5.548287939305125 C72.89748924121763 5.99433067905703, 72.74939284822037 6.440373418808935, 72.65169672997033 6.734618561215495 C72.52386807906744 7.050357800344443, 72.39603942816457 7.3660970394733924, 72.18260864880834 7.893275190886679 C72.00525545292513 8.261552896888666, 71.82790225704191 8.629830602890653, 71.6402489742735 9.019496659696284 C71.47781210981665 9.307919761055556, 71.3153752453598 9.596342862414827, 71.02684637860425 10.108655082055236 C70.82543064230687 10.418083740706203, 70.62401490600949 10.727512399357169, 70.34492146464065 11.156274872382301 C70.06137147097287 11.536206031961285, 69.7778214773051 11.916137191540269, 69.59727640812659 12.158051136245302 C69.34955661552246 12.449036900293628, 69.10183682291832 12.740022664341954, 68.78698344296866 13.10986736009567 C68.50080951123314 13.40536543992934, 68.21463557949762 13.700863519763011, 67.91737223676799 14.007812326905684 C67.60892561457516 14.287935388130803, 67.30047899238232 14.568058449355924, 66.9920162085019 14.848196188198111 C66.61730461840521 15.147018709806026, 66.24259302830852 15.445841231413942, 66.01471784457871 15.627565626425152 C65.62297107319718 15.9008312156965, 65.23122430181564 16.17409680496785, 64.9894930736057 16.34271804539089 C64.77172784190336 16.474728608579397, 64.55396261020103 16.606739171767906, 63.92055476407678 16.990714730406093 C63.603363255158534 17.156193337437887, 63.28617174624028 17.32167194446968, 62.81229541279239 17.56889292409717 C62.44580750520097 17.73112624931038, 62.07931959760955 17.893359574523586, 61.669269095147804 18.07487676824742 C61.39366890635169 18.17630018534461, 61.11806871755558 18.277723602441796, 60.49617275146062 18.506587066708033 C60.07621783903644 18.63122748032721, 59.65626292661226 18.75586789394639, 59.29782688623541 18.86224982926107 C59.034439701498165 18.92236623541534, 58.77105251676091 18.98248264156961, 58.079155759676766 19.140403561325773 C57.71361155712855 19.19950191315614, 57.34806735458033 19.25860026498651, 56.84516715284788 19.3399052695533 C56.4372281728976 19.379258652330698, 56.02928919294732 19.4186120351081, 55.6009317896239 19.45993515863156 C55.277401209504646 19.470310154621913, 54.953870629385385 19.480685150612263, 54.35156250000001 19.5 C54.35156250000001 19.5, 54.3515625 19.5, 54.3515625 19.5 C20.60315545006636 19.5, -13.14525159986728 19.5, -54.35156249999999 19.5 C-54.84439332961221 19.484195874531352, -55.33722415922442 19.468391749062707, -55.60093178962389 19.45993515863156 C-55.976201446487785 19.423733346161693, -56.351471103351685 19.387531533691828, -56.84516715284787 19.3399052695533 C-57.18030158143338 19.285723334145903, -57.515436010018895 19.231541398738507, -58.07915575967676 19.140403561325773 C-58.552559842515535 19.03235216866817, -59.025963925354304 18.924300776010565, -59.297826886235384 18.862249829261074 C-59.61177326308128 18.769072192551373, -59.92571963992719 18.67589455584167, -60.49617275146059 18.506587066708043 C-60.740029743206364 18.416845439556276, -60.98388673495214 18.327103812404513, -61.6692690951478 18.074876768247425 C-61.9192638355928 17.964211512482912, -62.169258576037805 17.8535462567184, -62.81229541279238 17.568892924097174 C-63.0523663092361 17.443648091195236, -63.29243720567982 17.318403258293294, -63.92055476407678 16.990714730406097 C-64.25135275511236 16.790183044255556, -64.58215074614793 16.589651358105016, -64.98949307360569 16.3427180453909 C-65.37023398203806 16.07712966967676, -65.75097489047043 15.811541293962627, -66.01471784457871 15.627565626425156 C-66.25414541797984 15.436628508073065, -66.49357299138097 15.245691389720974, -66.99201620850187 14.848196188198125 C-67.35081151749085 14.522347781777997, -67.70960682647983 14.19649937535787, -67.91737223676797 14.007812326905697 C-68.23751403602512 13.677239635042161, -68.55765583528226 13.346666943178624, -68.78698344296865 13.109867360095677 C-69.06586476751818 12.782277487482887, -69.34474609206771 12.454687614870098, -69.59727640812658 12.158051136245307 C-69.75594933555362 11.945443868894126, -69.91462226298067 11.732836601542946, -70.34492146464063 11.156274872382316 C-70.48508435913563 10.94094702743087, -70.62524725363063 10.725619182479422, -71.02684637860425 10.108655082055249 C-71.23841329391695 9.732996600444293, -71.44998020922965 9.357338118833338, -71.6402489742735 9.019496659696289 C-71.76491120163791 8.760632877229716, -71.88957342900234 8.501769094763143, -72.18260864880834 7.893275190886686 C-72.28735347817305 7.634553437252346, -72.39209830753776 7.375831683618006, -72.65169672997033 6.73461856121551 C-72.80750852244834 6.26533826750954, -72.96332031492635 5.79605797380357, -73.04558563421489 5.5482879393051325 C-73.1404109893011 5.186677762792549, -73.2352363443873 4.825067586279966, -73.36265678754556 4.339158212148136 C-73.42897267643218 3.9986401385834465, -73.49528856531879 3.6581220650187576, -73.60160727658177 3.112197953150904 C-73.63766721634099 2.8325241812190027, -73.6737271561002 2.5528504092871014, -73.76145520250937 1.872449005199809 C-73.78255711202827 1.5437697312880443, -73.80365902154718 1.2150904573762795, -73.84154371591342 0.6250057626472781 C-73.84154371591342 0.1388888438851137, -73.84154371591342 -0.34722807487705076, -73.84154371591342 -0.6250057626472687 C-73.81040269737997 -1.110052262883507, -73.77926167884651 -1.5950987631197453, -73.76145520250937 -1.8724490051997822 C-73.70623077963437 -2.3007587237224882, -73.65100635675937 -2.729068442245194, -73.60160727658177 -3.112197953150895 C-73.51533023858154 -3.5552123086236427, -73.42905320058131 -3.99822666409639, -73.36265678754556 -4.339158212148126 C-73.28731286393281 -4.62647724714659, -73.21196894032006 -4.913796282145054, -73.04558563421489 -5.548287939305123 C-72.96432331537662 -5.793037096253761, -72.88306099653835 -6.0377862532024, -72.65169672997033 -6.734618561215485 C-72.48173628780056 -7.154424139336418, -72.31177584563079 -7.57422971745735, -72.18260864880834 -7.893275190886676 C-71.97752177096896 -8.319142480876355, -71.7724348931296 -8.745009770866034, -71.6402489742735 -9.019496659696282 C-71.41097067954011 -9.426603488940325, -71.18169238480671 -9.833710318184368, -71.02684637860425 -10.108655082055243 C-70.77485923210537 -10.495775007100772, -70.5228720856065 -10.8828949321463, -70.34492146464063 -11.156274872382308 C-70.18264497042954 -11.37371059093244, -70.02036847621842 -11.591146309482573, -69.59727640812659 -12.158051136245302 C-69.42760817546053 -12.357353096730787, -69.25793994279448 -12.55665505721627, -68.78698344296866 -13.10986736009567 C-68.58264305974619 -13.320865582430342, -68.3783026765237 -13.531863804765015, -67.91737223676799 -14.007812326905677 C-67.67743073512223 -14.225720850196119, -67.43748923347646 -14.44362937348656, -66.9920162085019 -14.848196188198107 C-66.69550019528764 -15.084659818113984, -66.39898418207336 -15.321123448029862, -66.01471784457871 -15.627565626425149 C-65.75871642512256 -15.806141134514931, -65.50271500566639 -15.984716642604715, -64.98949307360571 -16.342718045390885 C-64.57121681935993 -16.596279568778787, -64.15294056511415 -16.84984109216669, -63.92055476407679 -16.99071473040609 C-63.51159651244978 -17.20406798832964, -63.102638260822765 -17.417421246253195, -62.81229541279239 -17.56889292409717 C-62.42917960644029 -17.738486926842636, -62.04606380008819 -17.908080929588106, -61.669269095147804 -18.07487676824742 C-61.408727478318895 -18.170758491660767, -61.14818586148998 -18.26664021507411, -60.49617275146062 -18.506587066708033 C-60.20045991363047 -18.59435308474766, -59.90474707580032 -18.682119102787286, -59.29782688623541 -18.862249829261067 C-58.952064266432366 -18.941167890919157, -58.60630164662932 -19.020085952577244, -58.079155759676766 -19.140403561325773 C-57.6101111313604 -19.216235059336544, -57.14106650304403 -19.29206655734732, -56.84516715284788 -19.3399052695533 C-56.410163455175464 -19.381869553099268, -55.97515975750305 -19.423833836645237, -55.6009317896239 -19.45993515863156 C-55.324930195043535 -19.468785992565238, -55.048928600463164 -19.477636826498916, -54.35156250000001 -19.5 C-54.35156250000001 -19.5, -54.3515625 -19.5, -54.3515625 -19.5" stroke="none" stroke-width="0" fill="#ECECFF" style=""/><path d="M-54.3515625 -19.5 C-11.07518642375809 -19.5, 32.20118965248382 -19.5, 54.3515625 -19.5 M-54.3515625 -19.5 C-16.556701084299057 -19.5, 21.238160331401886 -19.5, 54.3515625 -19.5 M54.3515625 -19.5 C54.3515625 -19.5, 54.3515625 -19.5, 54.3515625 -19.5 M54.3515625 -19.5 C54.3515625 -19.5, 54.3515625 -19.5, 54.3515625 -19.5 M54.3515625 -19.5 C54.84731760905541 -19.484102098581374, 55.34307271811082 -19.46820419716275, 55.6009317896239 -19.45993515863156 M54.3515625 -19.5 C54.764180023733765 -19.48676815912515, 55.17679754746753 -19.473536318250293, 55.6009317896239 -19.45993515863156 M55.6009317896239 -19.45993515863156 C56.083427113093165 -19.413389415062003, 56.56592243656243 -19.366843671492447, 56.845167152847864 -19.3399052695533 M55.6009317896239 -19.45993515863156 C55.94619097531501 -19.42662842022286, 56.29145016100612 -19.39332168181416, 56.845167152847864 -19.3399052695533 M56.845167152847864 -19.3399052695533 C57.14345612040847 -19.291680222543594, 57.44174508796908 -19.243455175533885, 58.07915575967676 -19.140403561325776 M56.845167152847864 -19.3399052695533 C57.16299281935573 -19.28852168056716, 57.4808184858636 -19.237138091581027, 58.07915575967676 -19.140403561325776 M58.07915575967676 -19.140403561325776 C58.51199689514472 -19.04161039670759, 58.94483803061269 -18.942817232089403, 59.29782688623539 -18.862249829261074 M58.07915575967676 -19.140403561325776 C58.55268878004664 -19.032322739518094, 59.02622180041652 -18.924241917710408, 59.29782688623539 -18.862249829261074 M59.29782688623539 -18.862249829261074 C59.5497321920904 -18.78748565676124, 59.801637497945414 -18.712721484261408, 60.496172751460605 -18.50658706670804 M59.29782688623539 -18.862249829261074 C59.665090265663125 -18.75324798605174, 60.032353645090865 -18.64424614284241, 60.496172751460605 -18.50658706670804 M60.496172751460605 -18.50658706670804 C60.94629933603164 -18.340936322661364, 61.396425920602674 -18.175285578614687, 61.6692690951478 -18.074876768247425 M60.496172751460605 -18.50658706670804 C60.87327179310875 -18.367811133516195, 61.25037083475689 -18.229035200324347, 61.6692690951478 -18.074876768247425 M61.6692690951478 -18.074876768247425 C62.013060369830015 -17.922690569151428, 62.35685164451224 -17.770504370055427, 62.81229541279238 -17.568892924097174 M61.6692690951478 -18.074876768247425 C62.03029368323875 -17.915061892513457, 62.39131827132971 -17.75524701677949, 62.81229541279238 -17.568892924097174 M62.81229541279238 -17.568892924097174 C63.13629594623726 -17.399862053331226, 63.46029647968214 -17.23083118256528, 63.92055476407678 -16.990714730406097 M62.81229541279238 -17.568892924097174 C63.06821273888663 -17.435381018996676, 63.32413006498088 -17.301869113896178, 63.92055476407678 -16.990714730406097 M63.92055476407678 -16.990714730406097 C64.15397440918677 -16.849214369814323, 64.38739405429678 -16.70771400922255, 64.9894930736057 -16.342718045390892 M63.92055476407678 -16.990714730406097 C64.1409439679071 -16.857113499893433, 64.36133317173743 -16.723512269380766, 64.9894930736057 -16.342718045390892 M64.9894930736057 -16.342718045390892 C65.26220093681124 -16.152488845351836, 65.53490880001678 -15.96225964531278, 66.01471784457871 -15.627565626425154 M64.9894930736057 -16.342718045390892 C65.31774289173717 -16.113745181967985, 65.64599270986864 -15.88477231854508, 66.01471784457871 -15.627565626425154 M66.01471784457871 -15.627565626425154 C66.22154822280012 -15.462623903781092, 66.42837860102155 -15.297682181137029, 66.99201620850187 -14.848196188198123 M66.01471784457871 -15.627565626425154 C66.24425564424095 -15.444515339451897, 66.47379344390319 -15.26146505247864, 66.99201620850187 -14.848196188198123 M66.99201620850187 -14.848196188198123 C67.36130568620317 -14.512817255413951, 67.73059516390448 -14.177438322629781, 67.91737223676799 -14.007812326905688 M66.99201620850187 -14.848196188198123 C67.24527959460656 -14.618189081919834, 67.49854298071126 -14.388181975641542, 67.91737223676799 -14.007812326905688 M67.91737223676799 -14.007812326905688 C68.15988897698945 -13.757393881632359, 68.40240571721091 -13.506975436359031, 68.78698344296865 -13.10986736009568 M67.91737223676799 -14.007812326905688 C68.1011716597947 -13.81802433241734, 68.2849710828214 -13.628236337928993, 68.78698344296865 -13.10986736009568 M68.78698344296865 -13.10986736009568 C68.9850088235032 -12.87725548015645, 69.18303420403772 -12.644643600217218, 69.59727640812658 -12.158051136245305 M68.78698344296865 -13.10986736009568 C68.99798932653887 -12.86200784267919, 69.2089952101091 -12.614148325262699, 69.59727640812658 -12.158051136245305 M69.59727640812658 -12.158051136245305 C69.78179654829411 -11.910810958551396, 69.96631668846165 -11.663570780857487, 70.34492146464063 -11.156274872382312 M69.59727640812658 -12.158051136245305 C69.87759592221157 -11.782448525004511, 70.15791543629655 -11.40684591376372, 70.34492146464063 -11.156274872382312 M70.34492146464063 -11.156274872382312 C70.4916108076513 -10.930920649914, 70.63830015066195 -10.705566427445689, 71.02684637860425 -10.108655082055241 M70.34492146464063 -11.156274872382312 C70.61638132485241 -10.739239629917998, 70.88784118506418 -10.322204387453684, 71.02684637860425 -10.108655082055241 M71.02684637860425 -10.108655082055241 C71.21224240673419 -9.779465660726967, 71.39763843486413 -9.450276239398692, 71.6402489742735 -9.019496659696287 M71.02684637860425 -10.108655082055241 C71.25992809224026 -9.694794897411668, 71.49300980587628 -9.280934712768094, 71.6402489742735 -9.019496659696287 M71.6402489742735 -9.019496659696287 C71.79290752135793 -8.702497920305811, 71.94556606844237 -8.385499180915335, 72.18260864880834 -7.893275190886684 M71.6402489742735 -9.019496659696287 C71.82505369045158 -8.63574571236504, 72.00985840662965 -8.251994765033793, 72.18260864880834 -7.893275190886684 M72.18260864880834 -7.893275190886684 C72.28575330003532 -7.638505908189883, 72.3888979512623 -7.38373662549308, 72.65169672997033 -6.734618561215508 M72.18260864880834 -7.893275190886684 C72.35332175518205 -7.471610517630252, 72.52403486155575 -7.049945844373818, 72.65169672997033 -6.734618561215508 M72.65169672997033 -6.734618561215508 C72.80919012452786 -6.260273549972915, 72.96668351908541 -5.785928538730321, 73.04558563421489 -5.548287939305138 M72.65169672997033 -6.734618561215508 C72.74282192890759 -6.460163980845219, 72.83394712784487 -6.18570940047493, 73.04558563421489 -5.548287939305138 M73.04558563421489 -5.548287939305138 C73.15254127825092 -5.140419713726355, 73.25949692228697 -4.732551488147573, 73.36265678754556 -4.339158212148133 M73.04558563421489 -5.548287939305138 C73.14456876275352 -5.170822370628061, 73.24355189129214 -4.793356801950983, 73.36265678754556 -4.339158212148133 M73.36265678754556 -4.339158212148133 C73.4220986664245 -4.033936727150285, 73.48154054530346 -3.7287152421524365, 73.60160727658177 -3.1121979531509023 M73.36265678754556 -4.339158212148133 C73.43458054835075 -3.9698449015056747, 73.50650430915596 -3.600531590863216, 73.60160727658177 -3.1121979531509023 M73.60160727658177 -3.1121979531509023 C73.65416992963738 -2.704532395721538, 73.70673258269298 -2.2968668382921744, 73.76145520250937 -1.872449005199798 M73.60160727658177 -3.1121979531509023 C73.64427284603782 -2.781292221719466, 73.68693841549387 -2.4503864902880297, 73.76145520250937 -1.872449005199798 M73.76145520250937 -1.872449005199798 C73.78279769631813 -1.5400224367775475, 73.80414019012687 -1.207595868355297, 73.84154371591342 -0.6250057626472757 M73.76145520250937 -1.872449005199798 C73.78346260721005 -1.5296659129293455, 73.80547001191073 -1.186882820658893, 73.84154371591342 -0.6250057626472757 M73.84154371591342 -0.6250057626472757 C73.84154371591342 -0.2600398977135273, 73.84154371591342 0.10492596722022107, 73.84154371591342 0.625005762647271 M73.84154371591342 -0.6250057626472757 C73.84154371591342 -0.32601819477125954, 73.84154371591342 -0.02703062689524338, 73.84154371591342 0.625005762647271 M73.84154371591342 0.625005762647271 C73.8254404565009 0.8758270263141855, 73.8093371970884 1.1266482899811, 73.76145520250937 1.8724490051997846 M73.84154371591342 0.625005762647271 C73.81555888774365 1.029740435967175, 73.78957405957388 1.4344751092870787, 73.76145520250937 1.8724490051997846 M73.76145520250937 1.8724490051997846 C73.70919492280365 2.277769414637842, 73.65693464309793 2.683089824075899, 73.60160727658177 3.1121979531508885 M73.76145520250937 1.8724490051997846 C73.71467297233374 2.2352827442456884, 73.66789074215811 2.598116483291592, 73.60160727658177 3.1121979531508885 M73.60160727658177 3.1121979531508885 C73.5263995478639 3.4983737449580627, 73.45119181914603 3.884549536765237, 73.36265678754556 4.339158212148129 M73.60160727658177 3.1121979531508885 C73.54645738496419 3.3953809906734844, 73.4913074933466 3.6785640281960807, 73.36265678754556 4.339158212148129 M73.36265678754556 4.339158212148129 C73.28993067317766 4.6164944059302835, 73.21720455880975 4.893830599712439, 73.04558563421489 5.548287939305125 M73.36265678754556 4.339158212148129 C73.28975145398888 4.61717784637115, 73.21684612043222 4.895197480594172, 73.04558563421489 5.548287939305125 M73.04558563421489 5.548287939305125 C72.90383539541104 5.975217073748859, 72.76208515660717 6.402146208192594, 72.65169672997033 6.734618561215495 M73.04558563421489 5.548287939305125 C72.91738673034091 5.9344026120521, 72.78918782646691 6.320517284799075, 72.65169672997033 6.734618561215495 M72.65169672997033 6.734618561215495 C72.50581288148223 7.094954487453425, 72.35992903299413 7.455290413691355, 72.18260864880834 7.893275190886679 M72.65169672997033 6.734618561215495 C72.5267622174851 7.043209222498472, 72.40182770499987 7.3517998837814496, 72.18260864880834 7.893275190886679 M72.18260864880834 7.893275190886679 C71.9762629533592 8.32175644257744, 71.76991725791004 8.7502376942682, 71.6402489742735 9.019496659696284 M72.18260864880834 7.893275190886679 C72.05254071466408 8.163364039145199, 71.92247278051983 8.43345288740372, 71.6402489742735 9.019496659696284 M71.6402489742735 9.019496659696284 C71.49337741955512 9.280281977456408, 71.34650586483671 9.541067295216534, 71.02684637860425 10.108655082055236 M71.6402489742735 9.019496659696284 C71.47062934871794 9.320673480719767, 71.30100972316237 9.621850301743251, 71.02684637860425 10.108655082055236 M71.02684637860425 10.108655082055236 C70.88285163197234 10.32986968088534, 70.73885688534045 10.551084279715443, 70.34492146464065 11.156274872382301 M71.02684637860425 10.108655082055236 C70.83942113055872 10.396590593779237, 70.65199588251319 10.684526105503236, 70.34492146464065 11.156274872382301 M70.34492146464065 11.156274872382301 C70.17648192877272 11.38196850528794, 70.00804239290477 11.607662138193577, 69.59727640812659 12.158051136245302 M70.34492146464065 11.156274872382301 C70.06562161258498 11.53051122939694, 69.78632176052929 11.90474758641158, 69.59727640812659 12.158051136245302 M69.59727640812659 12.158051136245302 C69.30586027668416 12.500365106285217, 69.01444414524171 12.842679076325132, 68.78698344296866 13.10986736009567 M69.59727640812659 12.158051136245302 C69.31051293394185 12.494899830326624, 69.02374945975711 12.831748524407946, 68.78698344296866 13.10986736009567 M68.78698344296866 13.10986736009567 C68.54410366523936 13.360660671401778, 68.30122388751005 13.611453982707884, 67.91737223676799 14.007812326905684 M68.78698344296866 13.10986736009567 C68.59907414620729 13.303899136641965, 68.41116484944592 13.497930913188261, 67.91737223676799 14.007812326905684 M67.91737223676799 14.007812326905684 C67.7149403891421 14.191655574866335, 67.51250854151621 14.375498822826987, 66.9920162085019 14.848196188198111 M67.91737223676799 14.007812326905684 C67.69080179167275 14.213577610415697, 67.46423134657753 14.41934289392571, 66.9920162085019 14.848196188198111 M66.9920162085019 14.848196188198111 C66.7127046245008 15.070939743645578, 66.4333930404997 15.293683299093045, 66.01471784457871 15.627565626425152 M66.9920162085019 14.848196188198111 C66.63940455397763 15.129394599291006, 66.28679289945336 15.4105930103839, 66.01471784457871 15.627565626425152 M66.01471784457871 15.627565626425152 C65.64411164062092 15.886084471022112, 65.27350543666313 16.144603315619072, 64.9894930736057 16.34271804539089 M66.01471784457871 15.627565626425152 C65.65963384606759 15.87525685244796, 65.30454984755646 16.122948078470767, 64.9894930736057 16.34271804539089 M64.9894930736057 16.34271804539089 C64.76572474669555 16.478367720172475, 64.54195641978541 16.614017394954057, 63.92055476407678 16.990714730406093 M64.9894930736057 16.34271804539089 C64.67688380986156 16.53222361816853, 64.36427454611744 16.72172919094617, 63.92055476407678 16.990714730406093 M63.92055476407678 16.990714730406093 C63.49379569197608 17.2133546649688, 63.067036619875374 17.435994599531504, 62.81229541279239 17.56889292409717 M63.92055476407678 16.990714730406093 C63.495558493267595 17.212435012664145, 63.070562222458406 17.434155294922196, 62.81229541279239 17.56889292409717 M62.81229541279239 17.56889292409717 C62.550840985462976 17.684631043305878, 62.289386558133565 17.800369162514585, 61.669269095147804 18.07487676824742 M62.81229541279239 17.56889292409717 C62.49023753092119 17.71145839489392, 62.16817964904999 17.85402386569067, 61.669269095147804 18.07487676824742 M61.669269095147804 18.07487676824742 C61.271248937809986 18.22135186540574, 60.87322878047217 18.36782696256406, 60.49617275146062 18.506587066708033 M61.669269095147804 18.07487676824742 C61.25480310060034 18.22740408552254, 60.84033710605288 18.379931402797663, 60.49617275146062 18.506587066708033 M60.49617275146062 18.506587066708033 C60.04714483858748 18.63985619425317, 59.59811692571434 18.773125321798307, 59.29782688623541 18.86224982926107 M60.49617275146062 18.506587066708033 C60.156196349759796 18.60749027816029, 59.816219948058965 18.708393489612547, 59.29782688623541 18.86224982926107 M59.29782688623541 18.86224982926107 C58.86335159530585 18.961415979199504, 58.42887630437628 19.06058212913794, 58.079155759676766 19.140403561325773 M59.29782688623541 18.86224982926107 C58.853021218361654 18.96377382032501, 58.40821555048789 19.065297811388948, 58.079155759676766 19.140403561325773 M58.079155759676766 19.140403561325773 C57.64744512231685 19.21019918920813, 57.21573448495694 19.279994817090486, 56.84516715284788 19.3399052695533 M58.079155759676766 19.140403561325773 C57.79964809554606 19.185592192848116, 57.52014043141535 19.230780824370463, 56.84516715284788 19.3399052695533 M56.84516715284788 19.3399052695533 C56.45051799681947 19.37797659900031, 56.05586884079106 19.416047928447316, 55.6009317896239 19.45993515863156 M56.84516715284788 19.3399052695533 C56.49839951638082 19.373357526394177, 56.151631879913765 19.406809783235055, 55.6009317896239 19.45993515863156 M55.6009317896239 19.45993515863156 C55.201851524619734 19.47273288596763, 54.80277125961557 19.485530613303702, 54.35156250000001 19.5 M55.6009317896239 19.45993515863156 C55.26138467171686 19.470823773814466, 54.921837553809816 19.481712388997373, 54.35156250000001 19.5 M54.35156250000001 19.5 C54.35156250000001 19.5, 54.35156250000001 19.5, 54.3515625 19.5 M54.35156250000001 19.5 C54.35156250000001 19.5, 54.3515625 19.5, 54.3515625 19.5 M54.3515625 19.5 C19.229154922468574 19.5, -15.893252655062852 19.5, -54.35156249999999 19.5 M54.3515625 19.5 C23.711249941037583 19.5, -6.929062617924835 19.5, -54.35156249999999 19.5 M-54.35156249999999 19.5 C-54.7527076192858 19.48713605680611, -55.153852738571615 19.474272113612223, -55.60093178962389 19.45993515863156 M-54.35156249999999 19.5 C-54.744048036197995 19.48741375278088, -55.136533572396004 19.474827505561763, -55.60093178962389 19.45993515863156 M-55.60093178962389 19.45993515863156 C-55.965274946511606 19.424787412473357, -56.329618103399326 19.389639666315155, -56.84516715284787 19.3399052695533 M-55.60093178962389 19.45993515863156 C-56.028992914057326 19.418640616776287, -56.45705403849076 19.377346074921018, -56.84516715284787 19.3399052695533 M-56.84516715284787 19.3399052695533 C-57.31943086579064 19.263229990414736, -57.793694578733415 19.186554711276173, -58.07915575967676 19.140403561325773 M-56.84516715284787 19.3399052695533 C-57.25723876436589 19.27328472706614, -57.6693103758839 19.206664184578983, -58.07915575967676 19.140403561325773 M-58.07915575967676 19.140403561325773 C-58.323061358620905 19.08473369999955, -58.56696695756505 19.029063838673327, -59.297826886235384 18.862249829261074 M-58.07915575967676 19.140403561325773 C-58.477726595009614 19.04943236907882, -58.87629743034246 18.958461176831864, -59.297826886235384 18.862249829261074 M-59.297826886235384 18.862249829261074 C-59.69616071075903 18.74402644103937, -60.09449453528268 18.625803052817666, -60.49617275146059 18.506587066708043 M-59.297826886235384 18.862249829261074 C-59.66257804660022 18.753993599482705, -60.02732920696504 18.645737369704335, -60.49617275146059 18.506587066708043 M-60.49617275146059 18.506587066708043 C-60.7454714523473 18.414842840289804, -60.994770153234015 18.323098613871565, -61.6692690951478 18.074876768247425 M-60.49617275146059 18.506587066708043 C-60.888767132805825 18.36210870527032, -61.28136151415105 18.217630343832596, -61.6692690951478 18.074876768247425 M-61.6692690951478 18.074876768247425 C-62.02177575788679 17.918832525391494, -62.37428242062578 17.762788282535563, -62.81229541279238 17.568892924097174 M-61.6692690951478 18.074876768247425 C-61.95365835063847 17.948986080949233, -62.238047606129136 17.82309539365104, -62.81229541279238 17.568892924097174 M-62.81229541279238 17.568892924097174 C-63.218547214646534 17.356951619286562, -63.62479901650069 17.145010314475947, -63.92055476407678 16.990714730406097 M-62.81229541279238 17.568892924097174 C-63.0553537079282 17.442089567211088, -63.298412003064016 17.315286210325, -63.92055476407678 16.990714730406097 M-63.92055476407678 16.990714730406097 C-64.25191862449104 16.789840010912783, -64.58328248490528 16.588965291419473, -64.98949307360569 16.3427180453909 M-63.92055476407678 16.990714730406097 C-64.34616603560144 16.732706676438394, -64.77177730712609 16.47469862247069, -64.98949307360569 16.3427180453909 M-64.98949307360569 16.3427180453909 C-65.3235299304823 16.109708394256256, -65.6575667873589 15.876698743121613, -66.01471784457871 15.627565626425156 M-64.98949307360569 16.3427180453909 C-65.22627067103957 16.177552243358015, -65.46304826847346 16.012386441325134, -66.01471784457871 15.627565626425156 M-66.01471784457871 15.627565626425156 C-66.34081995735269 15.367507869429579, -66.66692207012667 15.107450112434, -66.99201620850187 14.848196188198125 M-66.01471784457871 15.627565626425156 C-66.21237775264046 15.46993710969696, -66.41003766070223 15.312308592968767, -66.99201620850187 14.848196188198125 M-66.99201620850187 14.848196188198125 C-67.21025666052738 14.649995983994497, -67.42849711255288 14.451795779790869, -67.91737223676797 14.007812326905697 M-66.99201620850187 14.848196188198125 C-67.33942044003679 14.532692856930385, -67.6868246715717 14.217189525662643, -67.91737223676797 14.007812326905697 M-67.91737223676797 14.007812326905697 C-68.22462063361738 13.690553131596177, -68.53186903046678 13.37329393628666, -68.78698344296865 13.109867360095677 M-67.91737223676797 14.007812326905697 C-68.25368526573484 13.660541512684208, -68.58999829470173 13.31327069846272, -68.78698344296865 13.109867360095677 M-68.78698344296865 13.109867360095677 C-69.00607636085 12.852508352012046, -69.22516927873136 12.595149343928416, -69.59727640812658 12.158051136245307 M-68.78698344296865 13.109867360095677 C-68.9838957519904 12.878562957290926, -69.18080806101216 12.647258554486173, -69.59727640812658 12.158051136245307 M-69.59727640812658 12.158051136245307 C-69.82334230704815 11.85514342671746, -70.04940820596974 11.552235717189612, -70.34492146464063 11.156274872382316 M-69.59727640812658 12.158051136245307 C-69.83486270869994 11.83970713803424, -70.07244900927333 11.521363139823173, -70.34492146464063 11.156274872382316 M-70.34492146464063 11.156274872382316 C-70.54525666046068 10.848506214070287, -70.74559185628073 10.540737555758259, -71.02684637860425 10.108655082055249 M-70.34492146464063 11.156274872382316 C-70.56411846064839 10.81952942387943, -70.78331545665614 10.482783975376545, -71.02684637860425 10.108655082055249 M-71.02684637860425 10.108655082055249 C-71.22986620631445 9.748172819968984, -71.43288603402466 9.387690557882719, -71.6402489742735 9.019496659696289 M-71.02684637860425 10.108655082055249 C-71.26002193695382 9.694628266619938, -71.4931974953034 9.28060145118463, -71.6402489742735 9.019496659696289 M-71.6402489742735 9.019496659696289 C-71.85167743379941 8.580460939646413, -72.06310589332531 8.141425219596536, -72.18260864880834 7.893275190886686 M-71.6402489742735 9.019496659696289 C-71.76753282348888 8.75518902336248, -71.89481667270425 8.49088138702867, -72.18260864880834 7.893275190886686 M-72.18260864880834 7.893275190886686 C-72.29522709043839 7.615105462731005, -72.40784553206845 7.336935734575325, -72.65169672997033 6.73461856121551 M-72.18260864880834 7.893275190886686 C-72.301165893451 7.600436504470917, -72.41972313809367 7.307597818055148, -72.65169672997033 6.73461856121551 M-72.65169672997033 6.73461856121551 C-72.76290846825363 6.399666524690374, -72.87412020653694 6.0647144881652375, -73.04558563421489 5.5482879393051325 M-72.65169672997033 6.73461856121551 C-72.76980315550112 6.37890082522017, -72.88790958103192 6.023183089224831, -73.04558563421489 5.5482879393051325 M-73.04558563421489 5.5482879393051325 C-73.16530737404665 5.091737057596359, -73.28502911387841 4.6351861758875845, -73.36265678754556 4.339158212148136 M-73.04558563421489 5.5482879393051325 C-73.16741652242558 5.083693960716764, -73.28924741063629 4.619099982128396, -73.36265678754556 4.339158212148136 M-73.36265678754556 4.339158212148136 C-73.41533557465016 4.068663774031622, -73.46801436175475 3.7981693359151083, -73.60160727658177 3.112197953150904 M-73.36265678754556 4.339158212148136 C-73.44632362280187 3.9095466960988827, -73.52999045805818 3.4799351800496297, -73.60160727658177 3.112197953150904 M-73.60160727658177 3.112197953150904 C-73.65549302255138 2.694270748354759, -73.70937876852099 2.2763435435586143, -73.76145520250937 1.872449005199809 M-73.60160727658177 3.112197953150904 C-73.64559555375907 2.77103356183165, -73.68958383093636 2.4298691705123967, -73.76145520250937 1.872449005199809 M-73.76145520250937 1.872449005199809 C-73.77963084342899 1.5893487267633342, -73.79780648434863 1.3062484483268593, -73.84154371591342 0.6250057626472781 M-73.76145520250937 1.872449005199809 C-73.78318102259482 1.5340518206025802, -73.80490684268027 1.1956546360053513, -73.84154371591342 0.6250057626472781 M-73.84154371591342 0.6250057626472781 C-73.84154371591342 0.30231634157922677, -73.84154371591342 -0.020373079488824608, -73.84154371591342 -0.6250057626472687 M-73.84154371591342 0.6250057626472781 C-73.84154371591342 0.23482738750302357, -73.84154371591342 -0.155350987641231, -73.84154371591342 -0.6250057626472687 M-73.84154371591342 -0.6250057626472687 C-73.81816616518672 -0.9891299852347339, -73.79478861446005 -1.3532542078221992, -73.76145520250937 -1.8724490051997822 M-73.84154371591342 -0.6250057626472687 C-73.8170874230951 -1.005932264056814, -73.79263113027677 -1.3868587654663593, -73.76145520250937 -1.8724490051997822 M-73.76145520250937 -1.8724490051997822 C-73.6990791454529 -2.356225386184037, -73.63670308839644 -2.8400017671682916, -73.60160727658177 -3.112197953150895 M-73.76145520250937 -1.8724490051997822 C-73.7097993180284 -2.2730818446260104, -73.65814343354744 -2.6737146840522388, -73.60160727658177 -3.112197953150895 M-73.60160727658177 -3.112197953150895 C-73.543870185915 -3.408665710986364, -73.48613309524822 -3.705133468821833, -73.36265678754556 -4.339158212148126 M-73.60160727658177 -3.112197953150895 C-73.53993221961979 -3.4288863356228334, -73.47825716265778 -3.7455747180947716, -73.36265678754556 -4.339158212148126 M-73.36265678754556 -4.339158212148126 C-73.23620304726637 -4.821381129230382, -73.1097493069872 -5.303604046312636, -73.04558563421489 -5.548287939305123 M-73.36265678754556 -4.339158212148126 C-73.25414712201811 -4.7529525951908385, -73.14563745649065 -5.166746978233552, -73.04558563421489 -5.548287939305123 M-73.04558563421489 -5.548287939305123 C-72.95783316573853 -5.812584392898777, -72.87008069726217 -6.076880846492431, -72.65169672997033 -6.734618561215485 M-73.04558563421489 -5.548287939305123 C-72.90587089068025 -5.969086486310089, -72.76615614714562 -6.389885033315056, -72.65169672997033 -6.734618561215485 M-72.65169672997033 -6.734618561215485 C-72.51321834238283 -7.0766628558540905, -72.37473995479533 -7.418707150492695, -72.18260864880834 -7.893275190886676 M-72.65169672997033 -6.734618561215485 C-72.54944515084237 -6.9871819385613225, -72.44719357171442 -7.239745315907159, -72.18260864880834 -7.893275190886676 M-72.18260864880834 -7.893275190886676 C-71.96585814435116 -8.343362251109866, -71.74910763989398 -8.793449311333056, -71.6402489742735 -9.019496659696282 M-72.18260864880834 -7.893275190886676 C-72.00682548739948 -8.2582926867093, -71.83104232599062 -8.623310182531924, -71.6402489742735 -9.019496659696282 M-71.6402489742735 -9.019496659696282 C-71.45246221749572 -9.352931061826318, -71.26467546071795 -9.686365463956355, -71.02684637860425 -10.108655082055243 M-71.6402489742735 -9.019496659696282 C-71.46892742199395 -9.32369542395696, -71.2976058697144 -9.627894188217638, -71.02684637860425 -10.108655082055243 M-71.02684637860425 -10.108655082055243 C-70.77541315154 -10.494924038100981, -70.52397992447575 -10.881192994146717, -70.34492146464063 -11.156274872382308 M-71.02684637860425 -10.108655082055243 C-70.84720017075769 -10.384639899068857, -70.66755396291111 -10.66062471608247, -70.34492146464063 -11.156274872382308 M-70.34492146464063 -11.156274872382308 C-70.14014432243604 -11.430657587355027, -69.93536718023145 -11.705040302327744, -69.59727640812659 -12.158051136245302 M-70.34492146464063 -11.156274872382308 C-70.17546741949677 -11.383327855294004, -70.00601337435289 -11.610380838205698, -69.59727640812659 -12.158051136245302 M-69.59727640812659 -12.158051136245302 C-69.33287999769466 -12.468626204520596, -69.06848358726272 -12.779201272795891, -68.78698344296866 -13.10986736009567 M-69.59727640812659 -12.158051136245302 C-69.39363253803405 -12.397262813720463, -69.18998866794152 -12.636474491195623, -68.78698344296866 -13.10986736009567 M-68.78698344296866 -13.10986736009567 C-68.56963894801247 -13.334293395452839, -68.35229445305626 -13.558719430810006, -67.91737223676799 -14.007812326905677 M-68.78698344296866 -13.10986736009567 C-68.4398810628265 -13.468279065227833, -68.09277868268435 -13.826690770359997, -67.91737223676799 -14.007812326905677 M-67.91737223676799 -14.007812326905677 C-67.61196235204625 -14.285177503507226, -67.30655246732451 -14.562542680108773, -66.9920162085019 -14.848196188198107 M-67.91737223676799 -14.007812326905677 C-67.68097899442017 -14.222498414983523, -67.44458575207234 -14.437184503061367, -66.9920162085019 -14.848196188198107 M-66.9920162085019 -14.848196188198107 C-66.72705800334876 -15.059493305973778, -66.46209979819562 -15.270790423749448, -66.01471784457871 -15.627565626425149 M-66.9920162085019 -14.848196188198107 C-66.75385986858441 -15.038119531675934, -66.51570352866692 -15.22804287515376, -66.01471784457871 -15.627565626425149 M-66.01471784457871 -15.627565626425149 C-65.78867365378284 -15.785244268629048, -65.56262946298695 -15.94292291083295, -64.98949307360571 -16.342718045390885 M-66.01471784457871 -15.627565626425149 C-65.75363585137364 -15.809685122827675, -65.49255385816858 -15.991804619230201, -64.98949307360571 -16.342718045390885 M-64.98949307360571 -16.342718045390885 C-64.61839009121246 -16.56768285416087, -64.24728710881921 -16.792647662930854, -63.92055476407679 -16.99071473040609 M-64.98949307360571 -16.342718045390885 C-64.69874856849923 -16.5189690729908, -64.40800406339275 -16.695220100590713, -63.92055476407679 -16.99071473040609 M-63.92055476407679 -16.99071473040609 C-63.558359648649116 -17.179671690127666, -63.19616453322144 -17.36862864984924, -62.81229541279239 -17.56889292409717 M-63.92055476407679 -16.99071473040609 C-63.51461346110055 -17.20249404815098, -63.10867215812431 -17.414273365895873, -62.81229541279239 -17.56889292409717 M-62.81229541279239 -17.56889292409717 C-62.454646664223915 -17.727213415815257, -62.09699791565544 -17.88553390753334, -61.669269095147804 -18.07487676824742 M-62.81229541279239 -17.56889292409717 C-62.386478290004504 -17.75738953293921, -61.96066116721663 -17.945886141781255, -61.669269095147804 -18.07487676824742 M-61.669269095147804 -18.07487676824742 C-61.21410236602799 -18.242382332078634, -60.75893563690818 -18.409887895909847, -60.49617275146062 -18.506587066708033 M-61.669269095147804 -18.07487676824742 C-61.312922523805 -18.20601560053317, -60.95657595246219 -18.33715443281892, -60.49617275146062 -18.506587066708033 M-60.49617275146062 -18.506587066708033 C-60.20390493091392 -18.593330621701195, -59.91163711036723 -18.680074176694358, -59.29782688623541 -18.862249829261067 M-60.49617275146062 -18.506587066708033 C-60.09796454727093 -18.624773171474015, -59.69975634308124 -18.742959276239997, -59.29782688623541 -18.862249829261067 M-59.29782688623541 -18.862249829261067 C-58.8970267646524 -18.95372984154717, -58.49622664306939 -19.04520985383327, -58.079155759676766 -19.140403561325773 M-59.29782688623541 -18.862249829261067 C-58.9566752415836 -18.94011546593031, -58.615523596931794 -19.017981102599553, -58.079155759676766 -19.140403561325773 M-58.079155759676766 -19.140403561325773 C-57.62403387368751 -19.21398413832958, -57.168911987698245 -19.28756471533338, -56.84516715284788 -19.3399052695533 M-58.079155759676766 -19.140403561325773 C-57.774991996112696 -19.189578399793596, -57.470828232548634 -19.23875323826142, -56.84516715284788 -19.3399052695533 M-56.84516715284788 -19.3399052695533 C-56.384251802058444 -19.384369219112145, -55.923336451269016 -19.42883316867099, -55.6009317896239 -19.45993515863156 M-56.84516715284788 -19.3399052695533 C-56.41346819523566 -19.381550748800194, -55.98176923762343 -19.423196228047086, -55.6009317896239 -19.45993515863156 M-55.6009317896239 -19.45993515863156 C-55.17088334524289 -19.473725975204342, -54.74083490086189 -19.48751679177712, -54.35156250000001 -19.5 M-55.6009317896239 -19.45993515863156 C-55.2772663044141 -19.470314480765587, -54.953600819204304 -19.48069380289962, -54.35156250000001 -19.5 M-54.35156250000001 -19.5 C-54.35156250000001 -19.5, -54.3515625 -19.5, -54.3515625 -19.5 M-54.35156250000001 -19.5 C-54.35156250000001 -19.5, -54.3515625 -19.5, -54.3515625 -19.5" stroke="#9370DB" stroke-width="1.3" fill="none" stroke-dasharray="0 0" style=""/></g><g class="label" style="" transform="translate(-61.4765625, -12)"><rect/><foreignObject width="122.953125" height="24"><div xmlns="http://www.w3.org/1999/xhtml" style="display: table-cell; white-space: nowrap; line-height: 1.5; max-width: 200px; text-align: center;"><span class="nodeLabel"><p>Tool call attempt</p></span></div></foreignObject></g></g><g class="node default" id="my-svg-flowchart-hook-1" data-look="classic" transform="translate(1055.8046875, 124)"><rect class="basic label-container" style="" x="-106.703125" y="-27" width="213.40625" height="54"/><g class="label" style="" transform="translate(-76.703125, -12)"><rect/><foreignObject width="153.40625" height="24"><div xmlns="http://www.w3.org/1999/xhtml" style="display: table-cell; white-space: nowrap; line-height: 1.5; max-width: 200px; text-align: center;"><span class="nodeLabel"><p>PreToolUse hook fires</p></span></div></foreignObject></g></g><g class="node default" id="my-svg-flowchart-probes-3" data-look="classic" transform="translate(1055.8046875, 288)"><rect class="basic label-container" style="" x="-130" y="-87" width="260" height="174"/><g class="label" style="" transform="translate(-100, -72)"><rect/><foreignObject width="200" height="144"><div xmlns="http://www.w3.org/1999/xhtml" style="display: table; white-space: break-spaces; line-height: 1.5; max-width: 200px; text-align: center; width: 200px;"><span class="nodeLabel"><p>State probes:<br />git status, convergence counter,<br />harness restrictions, narrow memory recall,<br />cost class, active goal slug</p></span></div></foreignObject></g></g><g class="node default" id="my-svg-flowchart-classify-5" data-look="classic" transform="translate(1055.8046875, 576)"><polygon points="151,0 302,-151 151,-302 0,-151" class="label-container" transform="translate(-150.5, 151)"/><g class="label" style="" transform="translate(-100, -36)"><rect/><foreignObject width="200" height="72"><div xmlns="http://www.w3.org/1999/xhtml" style="display: table; white-space: break-spaces; line-height: 1.5; max-width: 200px; text-align: center; width: 200px;"><span class="nodeLabel"><p>Classifier<br />rule fast path + Haiku for ambiguous</p></span></div></foreignObject></g></g><g class="node default" id="my-svg-flowchart-outcome-7" data-look="classic" transform="translate(628.171875, 844.9375)"><polygon points="67.9375,0 135.875,-67.9375 67.9375,-135.875 0,-67.9375" class="label-container" transform="translate(-67.4375, 67.9375)"/><g class="label" style="" transform="translate(-40.9375, -12)"><rect/><foreignObject width="81.875" height="24"><div xmlns="http://www.w3.org/1999/xhtml" style="display: table-cell; white-space: nowrap; line-height: 1.5; max-width: 200px; text-align: center;"><span class="nodeLabel"><p>6 outcomes</p></span></div></foreignObject></g></g><g class="node default" id="my-svg-flowchart-allow-9" data-look="classic" transform="translate(650.671875, 1478.5612869262695)"><rect class="basic label-container" style="" x="-55.03125" y="-27" width="110.0625" height="54"/><g class="label" style="" transform="translate(-25.03125, -12)"><rect/><foreignObject width="50.0625" height="24"><div xmlns="http://www.w3.org/1999/xhtml" style="display: table-cell; white-space: nowrap; line-height: 1.5; max-width: 200px; text-align: center;"><span class="nodeLabel"><p>ALLOW</p></span></div></foreignObject></g></g><g class="node default" id="my-svg-flowchart-log-11" data-look="classic" transform="translate(856.4453125, 1478.5612869262695)"><rect class="basic label-container" style="" x="-100.7421875" y="-27" width="201.484375" height="54"/><g class="label" style="" transform="translate(-70.7421875, -12)"><rect/><foreignObject width="141.484375" height="24"><div xmlns="http://www.w3.org/1999/xhtml" style="display: table-cell; white-space: nowrap; line-height: 1.5; max-width: 200px; text-align: center;"><span class="nodeLabel"><p>LOG_AND_PROCEED</p></span></div></foreignObject></g></g><g class="node default" id="my-svg-flowchart-explain-13" data-look="classic" transform="translate(1122.3828125, 1478.5612869262695)"><rect class="basic label-container" style="" x="-115.1953125" y="-27" width="230.390625" height="54"/><g class="label" style="" transform="translate(-85.1953125, -12)"><rect/><foreignObject width="170.390625" height="24"><div xmlns="http://www.w3.org/1999/xhtml" style="display: table-cell; white-space: nowrap; line-height: 1.5; max-width: 200px; text-align: center;"><span class="nodeLabel"><p>EXPLAIN_AND_PROCEED</p></span></div></foreignObject></g></g><g class="node default" id="my-svg-flowchart-defer-15" data-look="classic" transform="translate(108, 1049.875)"><rect class="basic label-container" style="" x="-56.578125" y="-39" width="113.15625" height="78"/><g class="label" style="" transform="translate(-26.578125, -24)"><rect/><foreignObject width="53.15625" height="48"><div xmlns="http://www.w3.org/1999/xhtml" style="display: table-cell; white-space: nowrap; line-height: 1.5; max-width: 200px; text-align: center;"><span class="nodeLabel"><p>DEFER<br />v2.1.89</p></span></div></foreignObject></g></g><g class="node default" id="my-svg-flowchart-queue-17" data-look="classic" transform="translate(431.8359375, 1049.875)"><rect class="basic label-container" style="" x="-54.3515625" y="-27" width="108.703125" height="54"/><g class="label" style="" transform="translate(-24.3515625, -12)"><rect/><foreignObject width="48.703125" height="24"><div xmlns="http://www.w3.org/1999/xhtml" style="display: table-cell; white-space: nowrap; line-height: 1.5; max-width: 200px; text-align: center;"><span class="nodeLabel"><p>QUEUE</p></span></div></foreignObject></g></g><g class="node default" id="my-svg-flowchart-block-19" data-look="classic" transform="translate(1340.9375, 1478.5612869262695)"><rect class="basic label-container" style="" x="-53.359375" y="-27" width="106.71875" height="54"/><g class="label" style="" transform="translate(-23.359375, -12)"><rect/><foreignObject width="46.71875" height="24"><div xmlns="http://www.w3.org/1999/xhtml" style="display: table-cell; white-space: nowrap; line-height: 1.5; max-width: 200px; text-align: center;"><span class="nodeLabel"><p>BLOCK</p></span></div></foreignObject></g></g><g class="node default" id="my-svg-flowchart-resume-21" data-look="classic" transform="translate(168, 1179.8587684631348)"><rect class="basic label-container" style="" x="-130" y="-39" width="260" height="78"/><g class="label" style="" transform="translate(-100, -24)"><rect/><foreignObject width="200" height="48"><div xmlns="http://www.w3.org/1999/xhtml" style="display: table; white-space: break-spaces; line-height: 1.5; max-width: 200px; text-align: center; width: 200px;"><span class="nodeLabel"><p>Pause headless, resume after probe</p></span></div></foreignObject></g></g><g class="node default" id="my-svg-flowchart-qtbl-24" data-look="classic" transform="translate(431.8359375, 1179.8587684631348)"><path d="M0,14.32251348032673 a83.8359375,14.32251348032673 0,0,0 167.671875,0 a83.8359375,14.32251348032673 0,0,0 -167.671875,0 l0,53.322513480326734 a83.8359375,14.32251348032673 0,0,0 167.671875,0 l0,-53.322513480326734" class="basic label-container outer-path" style="" transform="translate(-83.8359375, -40.9837702204901)"/><g class="label" style="" transform="translate(-76.3359375, -2)"><rect/><foreignObject width="152.671875" height="24"><div xmlns="http://www.w3.org/1999/xhtml" style="display: table-cell; white-space: nowrap; line-height: 1.5; max-width: 200px; text-align: center;"><span class="nodeLabel"><p>decision_queue table</p></span></div></foreignObject></g></g><g class="node default" id="my-svg-flowchart-brief-26" data-look="classic" transform="translate(431.8359375, 1309.8425369262695)"><rect class="basic label-container" style="" x="-130" y="-39" width="260" height="78"/><g class="label" style="" transform="translate(-100, -24)"><rect/><foreignObject width="200" height="48"><div xmlns="http://www.w3.org/1999/xhtml" style="display: table; white-space: break-spaces; line-height: 1.5; max-width: 200px; text-align: center; width: 200px;"><span class="nodeLabel"><p>Batched morning/evening brief</p></span></div></foreignObject></g></g><g class="node default" id="my-svg-flowchart-ownerd-28" data-look="classic" transform="translate(431.8359375, 1478.5612869262695)"><polygon points="79.71875,0 159.4375,-79.71875 79.71875,-159.4375 0,-79.71875" class="label-container" transform="translate(-79.21875, 79.71875)"/><g class="label" style="" transform="translate(-52.71875, -12)"><rect/><foreignObject width="105.4375" height="24"><div xmlns="http://www.w3.org/1999/xhtml" style="display: table-cell; white-space: nowrap; line-height: 1.5; max-width: 200px; text-align: center;"><span class="nodeLabel"><p>Owner decides</p></span></div></foreignObject></g></g><g class="node default" id="my-svg-flowchart-emit-30" data-look="classic" transform="translate(753.55859375, 1695.2800369262695)"><rect class="basic label-container" style="" x="-130" y="-63" width="260" height="126"/><g class="label" style="" transform="translate(-100, -48)"><rect/><foreignObject width="200" height="96"><div xmlns="http://www.w3.org/1999/xhtml" style="display: table; white-space: break-spaces; line-height: 1.5; max-width: 200px; text-align: center; width: 200px;"><span class="nodeLabel"><p>Auto-emit decision_made event<br />no manual record_decision needed</p></span></div></foreignObject></g></g><g class="node default" id="my-svg-flowchart-action-43" data-look="classic" transform="translate(659.9375, 1843.7808265686035)"><rect class="basic label-container" style="" x="-90.7265625" y="-27" width="181.453125" height="54"/><g class="label" style="" transform="translate(-60.7265625, -12)"><rect/><foreignObject width="121.453125" height="24"><div xmlns="http://www.w3.org/1999/xhtml" style="display: table-cell; white-space: nowrap; line-height: 1.5; max-width: 200px; text-align: center;"><span class="nodeLabel"><p>Tool fires or held</p></span></div></foreignObject></g></g><g class="node default" id="my-svg-flowchart-events-45" data-look="classic" transform="translate(1337.6796875, 1843.7808265686035)"><path d="M0,10.66719220295256 a46.515625,10.66719220295256 0,0,0 93.03125,0 a46.515625,10.66719220295256 0,0,0 -93.03125,0 l0,49.66719220295256 a46.515625,10.66719220295256 0,0,0 93.03125,0 l0,-49.66719220295256" class="basic label-container outer-path" style="" transform="translate(-46.515625, -35.50078830442884)"/><g class="label" style="" transform="translate(-39.015625, -2)"><rect/><foreignObject width="78.03125" height="24"><div xmlns="http://www.w3.org/1999/xhtml" style="display: table-cell; white-space: nowrap; line-height: 1.5; max-width: 200px; text-align: center;"><span class="nodeLabel"><p>C17 events</p></span></div></foreignObject></g></g><g class="node default" id="my-svg-flowchart-calib-47" data-look="classic" transform="translate(1420.1796875, 1992.2816162109375)"><rect class="basic label-container" style="" x="-130" y="-63" width="260" height="126"/><g class="label" style="" transform="translate(-100, -48)"><rect/><foreignObject width="200" height="96"><div xmlns="http://www.w3.org/1999/xhtml" style="display: table; white-space: break-spaces; line-height: 1.5; max-width: 200px; text-align: center; width: 200px;"><span class="nodeLabel"><p>C5 calibrator<br />per-class precision/recall<br />from gate_overpermissive + gate_overcautious</p></span></div></foreignObject></g></g></g></g></g><defs><filter id="my-svg-drop-shadow" height="130%" width="130%"><feDropShadow dx="4" dy="4" stdDeviation="0" flood-opacity="0.06" flood-color="#000000"/></filter></defs><defs><filter id="my-svg-drop-shadow-small" height="150%" width="150%"><feDropShadow dx="2" dy="2" stdDeviation="0" flood-opacity="0.06" flood-color="#000000"/></filter></defs></svg>